<?xml version="1.0" encoding="utf-8"?>
<!-- Generator: Adobe Illustrator 17.0.0, SVG Export Plug-In . SVG Version: 6.00 Build 0)  -->
<!DOCTYPE svg PUBLIC "-//W3C//DTD SVG 1.1//EN" "http://www.w3.org/Graphics/SVG/1.1/DTD/svg11.dtd">
<svg version="1.1" id="Layer_1" xmlns="http://www.w3.org/2000/svg" xmlns:xlink="http://www.w3.org/1999/xlink" x="0px" y="0px"
	 width="77.662px" height="54.208px" viewBox="0 0 77.662 54.208" enable-background="new 0 0 77.662 54.208" xml:space="preserve">
<g>
	<g>
		<path fill="none" stroke="#0D1A35" stroke-width="1.8" stroke-miterlimit="10" d="M76.07,45.743c0,3.844-3.12,6.964-6.964,6.964
			H8.753c-3.844,0-6.964-3.12-6.964-6.964V6.281h9.285V1.638H76.07V45.743z M11.074,10.923H6.432v34.819
			c0,1.269,1.052,2.321,2.321,2.321s2.321-1.052,2.321-2.321V10.923z M71.428,6.281H15.717v39.462c0,0.798-0.143,1.597-0.397,2.321
			h53.786c1.269,0,2.321-1.052,2.321-2.321V6.281z M43.572,34.136H20.36V10.923h23.213V34.136z M43.572,43.421H20.36v-4.643h23.213
			V43.421z M25.002,15.566v13.928H38.93V15.566H25.002z M66.785,15.566h-18.57v-4.643h18.57V15.566z M66.785,24.851h-18.57v-4.643
			h18.57V24.851z M66.785,34.136h-18.57v-4.643h18.57V34.136z M66.785,43.421h-18.57v-4.643h18.57V43.421z"/>
	</g>
</g>
</svg>
