<?xml version="1.0" encoding="utf-8"?>
<!-- Generator: Adobe Illustrator 13.0.0, SVG Export Plug-In . SVG Version: 6.00 Build 14948)  -->
<!DOCTYPE svg PUBLIC "-//W3C//DTD SVG 1.1//EN" "http://www.w3.org/Graphics/SVG/1.1/DTD/svg11.dtd">
<svg version="1.1" id="Capa_1" xmlns="http://www.w3.org/2000/svg" xmlns:xlink="http://www.w3.org/1999/xlink" x="0px" y="0px"
	 width="97.495px" height="97.495px" viewBox="206.093 206.094 97.495 97.495"
	 enable-background="new 206.093 206.094 97.495 97.495" xml:space="preserve">
<g>
	<path fill="#FFFFFF" stroke="#FFFFFF" stroke-width="1.5" d="M276.232,254.927l-28.601-19.5c-0.399-0.271-0.914-0.301-1.34-0.075
		c-0.426,0.225-0.692,0.667-0.692,1.149v39c0,0.482,0.267,0.925,0.693,1.149c0.19,0.101,0.399,0.15,0.607,0.15
		c0.256,0,0.512-0.076,0.732-0.226l28.601-19.5c0.354-0.243,0.567-0.644,0.567-1.074S276.587,255.168,276.232,254.927z
		 M248.2,273.039v-34.078L273.192,256L248.2,273.039z"/>
	<path fill="#FFFFFF" stroke="#FFFFFF" stroke-width="1.5" d="M256,217c-21.505,0-39,17.496-39,39c0,21.505,17.495,39,39,39
		s39-17.495,39-39C295,234.496,277.505,217,256,217z M256,292.4c-20.071,0-36.4-16.329-36.4-36.399c0-20.071,16.329-36.4,36.4-36.4
		c20.07,0,36.4,16.329,36.4,36.4C292.4,276.071,276.07,292.4,256,292.4z"/>
</g>
</svg>
