<?xml version="1.0" encoding="utf-8"?>
<!-- Generator: Adobe Illustrator 13.0.0, SVG Export Plug-In . SVG Version: 6.00 Build 14948)  -->
<!DOCTYPE svg PUBLIC "-//W3C//DTD SVG 1.1//EN" "http://www.w3.org/Graphics/SVG/1.1/DTD/svg11.dtd">
<svg version="1.1" id="Layer_1" xmlns="http://www.w3.org/2000/svg" xmlns:xlink="http://www.w3.org/1999/xlink" x="0px" y="0px"
	 width="80.167px" height="80.167px" viewBox="0 0 80.167 80.167" enable-background="new 0 0 80.167 80.167" xml:space="preserve">
<path fill="#FFFFFF" d="M40.087,22.96c4.749,0,9.497,0,14.245,0c7.467,0,14.933,0.009,22.399-0.021
	c0.481-0.002,1.083-0.17,1.415-0.486c0.699-0.665,0.339-1.497-0.814-2.071c-12.06-6-24.125-11.991-36.174-18.011
	C40.374,1.98,39.747,2,38.979,2.384C28.267,7.736,17.543,13.062,6.821,18.394c-1.451,0.722-2.932,1.391-4.331,2.201
	c-0.39,0.226-0.761,0.881-0.742,1.321c0.029,0.65,0.575,1.074,1.32,1.044c0.156-0.006,0.312,0,0.469,0
	C15.72,22.959,27.904,22.959,40.087,22.96z"/>
<path fill="#FFFFFF" d="M40.074,75.601c0-0.002,0-0.004,0-0.006c-6.308,0-12.616-0.001-18.925,0
	c-5.965,0.001-11.93,0.001-17.894,0.01c-1.012,0.002-1.579,0.448-1.59,1.193c-0.011,0.738,0.667,1.268,1.638,1.279
	c0.125,0.002,0.25,0,0.375,0c24.265,0,48.53,0,72.796,0c1.309,0,2.029-0.459,2.013-1.279c-0.017-0.832-0.622-1.198-1.969-1.198
	C64.371,75.602,52.223,75.601,40.074,75.601z"/>
<path fill="#FFFFFF" d="M40.031,70.226c0,0.001,0,0.002,0,0.004c6.652,0,13.305,0,19.956,0c3.935,0,7.87,0.003,11.806-0.005
	c1.059-0.002,1.496-0.382,1.482-1.233c-0.014-0.832-0.472-1.19-1.531-1.201c-0.095,0-0.188,0-0.281,0c-20.707,0-41.413,0-62.117,0
	c-0.437,0-0.876-0.024-1.311,0.008c-0.782,0.061-1.178,0.498-1.151,1.291c0.028,0.82,0.459,1.137,1.575,1.137
	C18.982,70.227,29.506,70.226,40.031,70.226z"/>
<path fill="#FFFFFF" d="M14.192,45.248c0-4.996,0.001-9.992-0.002-14.986c0-0.31,0.008-0.63-0.062-0.928
	c-0.156-0.658-0.603-1.02-1.282-0.994c-0.637,0.025-1.045,0.384-1.151,1.024c-0.051,0.305-0.063,0.619-0.063,0.929
	c-0.003,9.929-0.003,19.858-0.001,29.788c0,0.311,0.002,0.625,0.05,0.931c0.105,0.674,0.542,1.089,1.196,1.104
	c0.711,0.018,1.13-0.466,1.286-1.135c0.062-0.268,0.028-0.559,0.028-0.84C14.193,55.177,14.192,50.212,14.192,45.248z"/>
<path fill="#FFFFFF" d="M65.964,45.292c0,1.592,0,3.185,0,4.776c0,3.497-0.006,6.994,0.006,10.491
	c0.003,0.911,0.545,1.561,1.257,1.576c0.733,0.017,1.235-0.58,1.291-1.539c0.007-0.125,0.002-0.25,0.002-0.375
	c0-10.023,0.001-20.046-0.005-30.069c0-0.338,0.025-0.752-0.148-0.996c-0.246-0.341-0.664-0.765-1.014-0.77
	c-0.4-0.006-0.907,0.326-1.18,0.664c-0.217,0.268-0.2,0.764-0.201,1.159C65.96,35.237,65.964,40.264,65.964,45.292z"/>
<path fill="#FFFFFF" d="M60.035,45.208c0.002,0,0.006,0,0.01,0c0-4.151,0.002-8.303-0.002-12.455
	c-0.002-1.092-0.002-2.185-0.043-3.276c-0.027-0.753-0.51-1.141-1.223-1.14c-0.718,0.002-1.138,0.442-1.238,1.152
	c-0.035,0.245-0.012,0.499-0.012,0.748c0,9.99,0,19.979,0,29.969c0,1.226,0.467,1.934,1.27,1.931
	c0.836-0.005,1.234-0.616,1.236-1.944C60.037,55.198,60.035,50.205,60.035,45.208z"/>
<path fill="#FFFFFF" d="M20.123,45.164c0,4.963-0.001,9.926,0.002,14.889c0,0.342-0.076,0.744,0.073,1.013
	c0.219,0.396,0.569,0.909,0.938,0.979c0.375,0.072,0.938-0.239,1.238-0.556c0.23-0.241,0.245-0.751,0.246-1.141
	c0.012-10.082,0.012-20.165,0.001-30.247c0-0.392-0.001-0.905-0.229-1.145c-0.295-0.311-0.838-0.581-1.238-0.538
	c-0.346,0.037-0.721,0.49-0.934,0.848c-0.156,0.262-0.092,0.668-0.093,1.009C20.122,35.237,20.123,40.2,20.123,45.164z"/>
<path fill="#FFFFFF" d="M37.073,45.285c0-5.148,0.002-10.298-0.001-15.448c-0.001-0.969-0.472-1.542-1.246-1.507
	c-0.66,0.029-1.238,0.533-1.205,1.467c0.065,1.839,0.018,3.682,0.018,5.523c0,8.364-0.004,16.727,0.015,25.092
	c0.001,0.438,0.069,0.998,0.338,1.281c0.252,0.266,0.842,0.387,1.231,0.309c0.658-0.131,0.86-0.688,0.858-1.361
	C37.065,55.521,37.072,50.403,37.073,45.285z"/>
<path fill="#FFFFFF" d="M45.514,45.271c0-5.149-0.024-10.299,0.021-15.447c0.01-0.996-0.595-1.5-1.271-1.495
	c-0.738,0.005-1.177,0.557-1.179,1.479c-0.004,2.746-0.002,5.492-0.002,8.239c0,7.458-0.002,14.917,0.004,22.376
	c0,0.334-0.045,0.797,0.144,0.974c0.347,0.326,0.869,0.694,1.288,0.662c0.664-0.052,1.005-0.59,1.003-1.339
	C45.503,55.569,45.513,50.419,45.514,45.271z"/>
<path fill="#FFFFFF" d="M40.074,75.601c12.148,0,24.296,0,36.444,0c1.347,0,1.951,0.367,1.969,1.197
	c0.017,0.822-0.704,1.281-2.013,1.281c-24.266,0-48.531,0-72.796,0c-0.125,0-0.25,0-0.375,0c-0.971-0.013-1.65-0.543-1.638-1.281
	c0.012-0.744,0.578-1.19,1.59-1.192c5.965-0.009,11.93-0.009,17.894-0.01c6.308-0.001,12.616,0,18.925,0
	C40.074,75.598,40.074,75.599,40.074,75.601z"/>
<path fill="#FFFFFF" d="M40.031,70.226c-10.525,0-21.049,0.001-31.574-0.001c-1.116,0-1.547-0.315-1.575-1.136
	c-0.027-0.795,0.369-1.232,1.151-1.291c0.435-0.033,0.874-0.008,1.311-0.008c20.706,0,41.411,0,62.116,0
	c0.095,0,0.188-0.002,0.281,0c1.061,0.01,1.518,0.369,1.532,1.2c0.015,0.851-0.423,1.231-1.483,1.233
	c-3.935,0.007-7.869,0.005-11.805,0.005c-6.652,0-13.304,0-19.956,0C40.031,70.229,40.031,70.228,40.031,70.226z"/>
<path fill="#FFFFFF" d="M14.192,45.248c0,4.965,0,9.93-0.001,14.895c0,0.281,0.034,0.572-0.028,0.84
	c-0.156,0.669-0.575,1.152-1.286,1.135c-0.653-0.016-1.09-0.431-1.196-1.104c-0.048-0.306-0.05-0.621-0.05-0.931
	c-0.002-9.93-0.002-19.858,0.001-29.788c0-0.31,0.012-0.624,0.063-0.929c0.106-0.64,0.513-0.999,1.151-1.024
	c0.68-0.027,1.126,0.335,1.282,0.994c0.07,0.298,0.062,0.618,0.062,0.928C14.193,35.256,14.192,40.252,14.192,45.248z"/>
<path fill="#FFFFFF" d="M65.964,45.292c0-5.027-0.004-10.055,0.009-15.082c0.001-0.395-0.017-0.891,0.2-1.159
	c0.273-0.337,0.779-0.67,1.181-0.664c0.351,0.005,0.769,0.429,1.013,0.77c0.176,0.244,0.148,0.658,0.149,0.996
	c0.007,10.023,0.005,20.047,0.005,30.069c0,0.125,0.005,0.25-0.002,0.375c-0.055,0.959-0.557,1.556-1.291,1.539
	c-0.711-0.017-1.254-0.665-1.257-1.576c-0.011-3.497-0.005-6.994-0.005-10.491C65.964,48.476,65.964,46.884,65.964,45.292z"/>
<path fill="#FFFFFF" d="M60.035,45.208c0,4.996,0.002,9.989-0.002,14.984c-0.002,1.328-0.4,1.939-1.236,1.944
	c-0.803,0.004-1.27-0.705-1.27-1.931c0-9.99,0-19.979,0-29.969c0-0.25-0.023-0.503,0.012-0.748c0.102-0.709,0.521-1.15,1.238-1.152
	c0.713-0.002,1.195,0.387,1.223,1.14c0.041,1.091,0.041,2.184,0.043,3.276c0.004,4.152,0.002,8.303,0.002,12.455
	C60.041,45.208,60.037,45.208,60.035,45.208z"/>
<path fill="#FFFFFF" d="M20.123,45.164c0-4.963-0.001-9.927,0.003-14.89c0-0.342-0.064-0.747,0.093-1.009
	c0.214-0.358,0.589-0.811,0.934-0.848c0.401-0.043,0.944,0.227,1.238,0.538c0.228,0.241,0.229,0.753,0.229,1.145
	c0.011,10.082,0.011,20.165-0.001,30.247c0,0.39-0.015,0.898-0.246,1.141c-0.3,0.316-0.863,0.628-1.238,0.557
	c-0.369-0.071-0.719-0.584-0.938-0.98c-0.149-0.27-0.073-0.671-0.073-1.013C20.122,55.089,20.123,50.126,20.123,45.164z"/>
<path fill="#FFFFFF" d="M37.072,45.285c-0.001,5.118-0.008,10.236,0.008,15.354c0.002,0.674-0.2,1.229-0.858,1.362
	c-0.389,0.078-0.978-0.043-1.231-0.31c-0.269-0.282-0.337-0.843-0.338-1.282c-0.019-8.363-0.014-16.727-0.015-25.091
	c0-1.841,0.047-3.684-0.018-5.523c-0.033-0.934,0.544-1.437,1.205-1.467c0.774-0.034,1.245,0.539,1.246,1.507
	C37.075,34.986,37.073,40.136,37.072,45.285z"/>
<path fill="#FFFFFF" d="M45.513,45.271c0,5.148-0.01,10.298,0.009,15.447c0.003,0.748-0.339,1.287-1.003,1.339
	c-0.419,0.032-0.941-0.337-1.288-0.662c-0.188-0.177-0.144-0.64-0.144-0.974c-0.006-7.459-0.004-14.918-0.004-22.376
	c0-2.746-0.004-5.492,0.002-8.239c0.002-0.922,0.439-1.474,1.179-1.479c0.675-0.004,1.28,0.5,1.271,1.495
	C45.49,34.972,45.514,40.122,45.513,45.271z"/>
</svg>
