<?xml version="1.0" encoding="utf-8"?>
<!-- Generator: Adobe Illustrator 17.0.0, SVG Export Plug-In . SVG Version: 6.00 Build 0)  -->
<!DOCTYPE svg PUBLIC "-//W3C//DTD SVG 1.1//EN" "http://www.w3.org/Graphics/SVG/1.1/DTD/svg11.dtd">
<svg version="1.1" id="Layer_1" xmlns="http://www.w3.org/2000/svg" xmlns:xlink="http://www.w3.org/1999/xlink" x="0px" y="0px"
	 width="59.972px" height="59.455px" viewBox="28.457 28.29 59.972 59.455" enable-background="new 28.457 28.29 59.972 59.455"
	 xml:space="preserve">
<g>
	<path fill="#FFFFFF" d="M79.66,71.76l-0.151-0.729l0.154-0.259l0.228,0.6L79.66,71.76z M77.753,70.703l0.568-0.954l-0.889-0.53
		l-0.635,1.068l-0.268-0.159l0.828-1.389l2.463,1.467l-0.794,1.334l-0.267-0.159l0.604-1.013l-0.779-0.463l-0.568,0.955
		L77.753,70.703z"/>
	<path fill="#FFFFFF" d="M74.796,72.595c0.028-0.145,0.145-0.405,0.359-0.68c0.498-0.637,1.273-0.798,2.017-0.216
		c0.711,0.556,0.811,1.408,0.263,2.108c-0.218,0.278-0.42,0.411-0.521,0.458l-0.179-0.26c0.137-0.065,0.302-0.192,0.447-0.378
		c0.414-0.53,0.351-1.146-0.242-1.61c-0.557-0.435-1.157-0.393-1.585,0.153c-0.142,0.181-0.246,0.391-0.281,0.553L74.796,72.595z"/>
	<path fill="#FFFFFF" d="M73.277,73.964c0.549-0.528,1.335-0.471,1.938,0.155c0.632,0.656,0.64,1.475,0.087,2.006
		c-0.567,0.546-1.348,0.464-1.938-0.15c-0.681-0.708-0.615-1.505-0.091-2.009L73.277,73.964z M73.474,74.193
		c-0.424,0.407-0.289,1.027,0.163,1.496c0.395,0.411,1.023,0.634,1.467,0.206c0.445-0.428,0.267-1.054-0.163-1.502
		c-0.419-0.436-1.045-0.607-1.465-0.203L73.474,74.193z"/>
	<path fill="#FFFFFF" d="M73.248,77.85l-0.302,0.221l-1.511-2.064l-0.988,0.724l-0.184-0.251l1.291-0.946L73.248,77.85z"/>
	<path fill="#FFFFFF" d="M68.847,78.885l0.966-0.549l-0.512-0.898l-1.079,0.614l-0.154-0.27l1.405-0.801l1.42,2.493l-1.35,0.767
		l-0.154-0.269l1.024-0.583l-0.448-0.788L69,79.151L68.847,78.885z"/>
	<path fill="#FFFFFF" d="M66.728,81.483c-0.207,0.104-0.454,0.212-0.732,0.305c-0.506,0.168-0.903,0.173-1.215,0.029
		c-0.318-0.14-0.566-0.412-0.712-0.853c-0.148-0.445-0.126-0.854,0.041-1.188c0.174-0.34,0.55-0.616,1.079-0.792
		c0.255-0.083,0.463-0.144,0.653-0.179L66.728,81.483z M65.576,79.187c-0.094,0.013-0.223,0.056-0.36,0.102
		c-0.753,0.244-1.021,0.803-0.777,1.539c0.211,0.651,0.706,0.93,1.45,0.686c0.181-0.06,0.314-0.122,0.4-0.173L65.576,79.187z"/>
	<path fill="#FFFFFF" d="M62.734,82.655l-0.287-1.678c-0.108-0.63-0.434-0.85-0.813-0.785c-0.414,0.071-0.64,0.395-0.534,1.015
		l0.287,1.678l-0.37,0.063l-0.282-1.652c-0.149-0.869,0.249-1.299,0.861-1.404c0.58-0.099,1.071,0.153,1.222,1.034l0.285,1.665
		L62.734,82.655z"/>
	<path fill="#FFFFFF" d="M55.439,81.42c-0.002,0.4-0.005,0.886-0.026,1.238l0.009,0.001c0.122-0.325,0.257-0.681,0.425-1.067
		l0.587-1.359l0.28,0.015l0.388,1.391c0.112,0.416,0.202,0.788,0.261,1.132l0.009,0.001c0.03-0.357,0.078-0.831,0.129-1.263
		l0.149-1.223l0.352,0.021l-0.367,2.851l-0.471-0.028l-0.408-1.413c-0.099-0.359-0.174-0.679-0.233-0.981h-0.008
		c-0.094,0.284-0.213,0.592-0.362,0.946l-0.59,1.356L55.09,83.01l-0.011-2.873l0.365,0.021L55.439,81.42z"/>
	<path fill="#FFFFFF" d="M52.9,79.661c0.743,0.169,1.127,0.858,0.936,1.705c-0.202,0.889-0.881,1.344-1.628,1.175
		c-0.768-0.174-1.129-0.87-0.941-1.7c0.217-0.96,0.919-1.342,1.629-1.18L52.9,79.661z M52.817,79.953
		c-0.573-0.13-1.017,0.323-1.16,0.958c-0.126,0.556,0.033,1.203,0.635,1.339c0.602,0.136,1.027-0.356,1.165-0.962
		c0.133-0.589-0.067-1.206-0.636-1.334L52.817,79.953z"/>
	<path fill="#FFFFFF" d="M50.626,79.098l-1.05,2.669l-0.38-0.151l-0.32-1.685c-0.072-0.39-0.121-0.729-0.134-1.054l-0.014-0.001
		c-0.109,0.369-0.228,0.697-0.39,1.108l-0.441,1.122l-0.324-0.129l1.05-2.669l0.348,0.137l0.315,1.687
		c0.07,0.37,0.128,0.745,0.144,1.085l0.014,0.001c0.112-0.344,0.235-0.667,0.409-1.11l0.449-1.141L50.626,79.098z"/>
	<path fill="#FFFFFF" d="M46.136,80.242c-0.216-0.085-0.46-0.197-0.715-0.345c-0.46-0.267-0.728-0.561-0.827-0.889
		c-0.107-0.333-0.067-0.699,0.166-1.099c0.235-0.406,0.556-0.662,0.917-0.758c0.37-0.095,0.826,0.002,1.308,0.282
		c0.231,0.134,0.415,0.251,0.568,0.368L46.136,80.242z M47.088,77.858c-0.072-0.061-0.19-0.13-0.315-0.203
		c-0.682-0.401-1.278-0.23-1.667,0.439c-0.347,0.59-0.228,1.148,0.449,1.541c0.165,0.096,0.299,0.153,0.395,0.184L47.088,77.858z"/>
	<path fill="#FFFFFF" d="M42.706,76.168l0.877,0.683l0.635-0.817l-0.981-0.763l0.191-0.245l1.276,0.992l-1.761,2.264l-1.227-0.954
		l0.191-0.244l0.93,0.724l0.557-0.715l-0.877-0.682L42.706,76.168z"/>
	<path fill="#FFFFFF" d="M40.727,73.828c0.165,0.177,0.157,0.458-0.026,0.629c-0.179,0.171-0.463,0.157-0.632-0.024
		c-0.168-0.181-0.16-0.461,0.024-0.632c0.181-0.167,0.463-0.156,0.632,0.025L40.727,73.828z"/>
	<path fill="#FFFFFF" d="M38.461,69.272c0.129,0.074,0.337,0.268,0.528,0.561c0.441,0.677,0.344,1.462-0.447,1.978
		c-0.756,0.493-1.594,0.313-2.081-0.431c-0.192-0.296-0.254-0.531-0.264-0.641l0.304-0.087c0.017,0.152,0.084,0.347,0.214,0.547
		c0.368,0.563,0.971,0.702,1.603,0.291c0.592-0.385,0.745-0.97,0.366-1.549c-0.126-0.193-0.29-0.36-0.432-0.444L38.461,69.272z"/>
	<path fill="#FFFFFF" d="M37.66,67.405c0.324,0.69,0.016,1.417-0.77,1.785c-0.824,0.386-1.602,0.131-1.927-0.563
		c-0.334-0.712-0.006-1.425,0.765-1.787c0.89-0.417,1.623-0.098,1.931,0.562L37.66,67.405z M37.38,67.517
		c-0.25-0.531-0.879-0.603-1.469-0.326c-0.516,0.242-0.929,0.765-0.667,1.323c0.262,0.56,0.913,0.593,1.475,0.33
		c0.547-0.256,0.911-0.795,0.663-1.322L37.38,67.517z"/>
	<path fill="#FFFFFF" d="M33.992,66.129l-0.112-0.358l2.441-0.766l-0.367-1.17l0.296-0.092l0.479,1.526L33.992,66.129z"/>
	<path fill="#FFFFFF" d="M34.432,61.617l0.207,1.092l1.016-0.194l-0.231-1.221l0.305-0.057l0.302,1.589l-2.818,0.535l-0.289-1.526
		l0.306-0.059l0.219,1.158l0.891-0.169l-0.207-1.091L34.432,61.617z"/>
	<path fill="#FFFFFF" d="M35.349,58.047c0.073,0.162,0.185,0.488,0.205,0.875c0.024,0.434-0.067,0.797-0.321,1.091
		c-0.224,0.26-0.598,0.434-1.045,0.458c-0.854,0.046-1.51-0.511-1.562-1.471c-0.018-0.332,0.04-0.599,0.093-0.725l0.307,0.077
		c-0.064,0.156-0.105,0.351-0.089,0.64c0.038,0.697,0.496,1.128,1.214,1.09c0.726-0.04,1.132-0.496,1.096-1.168
		c-0.013-0.242-0.056-0.406-0.103-0.488L34.29,58.47l0.031,0.578l-0.297,0.016l-0.051-0.943L35.349,58.047z"/>
	<path fill="#FFFFFF" d="M32.685,56.428l2.864,0.156l-0.021,0.374l-2.863-0.155L32.685,56.428z"/>
	<path fill="#FFFFFF" d="M35.858,54.307c-0.121,0.752-0.784,1.18-1.641,1.044c-0.899-0.143-1.399-0.792-1.278-1.549
		c0.124-0.777,0.797-1.183,1.636-1.048c0.971,0.155,1.397,0.831,1.283,1.549L35.858,54.307z M35.561,54.242
		c0.093-0.58-0.389-0.993-1.031-1.095c-0.563-0.09-1.199,0.11-1.296,0.719c-0.098,0.609,0.421,1.002,1.035,1.1
		c0.596,0.096,1.2-0.144,1.292-0.72L35.561,54.242z"/>
	<path fill="#FFFFFF" d="M34.085,49.585c0.054-0.227,0.131-0.485,0.24-0.757c0.198-0.493,0.45-0.801,0.761-0.947
		c0.314-0.153,0.682-0.167,1.112,0.006c0.434,0.175,0.734,0.457,0.88,0.799c0.148,0.353,0.117,0.818-0.091,1.335
		c-0.1,0.249-0.189,0.448-0.284,0.615L34.085,49.585z M36.582,50.184c0.051-0.081,0.102-0.207,0.155-0.342
		c0.299-0.733,0.044-1.298-0.674-1.586c-0.635-0.259-1.168-0.061-1.46,0.666c-0.072,0.178-0.109,0.318-0.127,0.417L36.582,50.184z"
		/>
	<path fill="#FFFFFF" d="M37.624,45.604l-0.548,0.965l0.898,0.511L38.588,46l0.27,0.154l-0.799,1.405l-2.494-1.418l0.767-1.35
		l0.27,0.153l-0.583,1.025l0.788,0.448l0.549-0.966L37.624,45.604z"/>
	<path fill="#FFFFFF" d="M37.105,43.616l0.222-0.301l2.062,1.513l0.725-0.988l0.251,0.184l-0.947,1.289L37.105,43.616z"/>
	<path fill="#FFFFFF" d="M42.906,39.676c-0.282-0.284-0.624-0.63-0.858-0.894l-0.006,0.006c0.144,0.316,0.299,0.663,0.454,1.054
		l0.547,1.377l-0.21,0.186l-1.258-0.71c-0.374-0.215-0.7-0.415-0.986-0.615l-0.006,0.006c0.23,0.273,0.532,0.643,0.802,0.983
		l0.76,0.971l-0.263,0.234l-1.758-2.275l0.353-0.314l1.288,0.711c0.324,0.185,0.603,0.358,0.859,0.53l0.006-0.006
		c-0.135-0.267-0.268-0.571-0.413-0.926l-0.541-1.376l0.353-0.314l2.04,2.024l-0.273,0.244L42.906,39.676z"/>
	<path fill="#FFFFFF" d="M43.74,37.072l0.912,1.436c0.343,0.539,0.729,0.615,1.052,0.409c0.356-0.226,0.438-0.611,0.101-1.142
		l-0.913-1.437l0.315-0.202l0.9,1.415c0.472,0.743,0.273,1.294-0.252,1.627c-0.496,0.316-1.047,0.272-1.527-0.481l-0.906-1.426
		L43.74,37.072z"/>
	<path fill="#FFFFFF" d="M47.791,37.998l-1.165-2.62l0.374-0.166l1.425,0.954c0.327,0.223,0.604,0.427,0.845,0.644l0.01-0.009
		c-0.186-0.336-0.337-0.652-0.516-1.056l-0.489-1.1l0.319-0.142l1.165,2.621l-0.342,0.152l-1.423-0.96
		c-0.313-0.211-0.62-0.432-0.875-0.659l-0.01,0.009c0.166,0.323,0.31,0.636,0.504,1.071l0.498,1.121L47.791,37.998z"/>
	<path fill="#FFFFFF" d="M50.121,33.996c0.213-0.093,0.464-0.19,0.747-0.267c0.513-0.141,0.91-0.126,1.214,0.034
		c0.312,0.157,0.545,0.441,0.667,0.889c0.124,0.451,0.082,0.86-0.103,1.184c-0.192,0.332-0.58,0.587-1.118,0.735
		c-0.258,0.071-0.47,0.12-0.662,0.146L50.121,33.996z M51.153,36.347c0.095-0.009,0.227-0.045,0.366-0.083
		c0.765-0.205,1.061-0.75,0.856-1.497c-0.178-0.661-0.658-0.967-1.413-0.76c-0.185,0.051-0.32,0.105-0.409,0.152L51.153,36.347z"/>
	<path fill="#FFFFFF" d="M55.252,35.838c-0.757,0.087-1.348-0.437-1.447-1.3c-0.104-0.904,0.387-1.56,1.148-1.648
		c0.782-0.089,1.353,0.449,1.449,1.296c0.112,0.976-0.424,1.568-1.147,1.651L55.252,35.838z M55.234,35.535
		c0.583-0.066,0.852-0.642,0.778-1.288c-0.065-0.566-0.429-1.124-1.042-1.055c-0.613,0.071-0.852,0.676-0.782,1.293
		c0.069,0.601,0.462,1.116,1.042,1.051L55.234,35.535z"/>
	<path fill="#FFFFFF" d="M59.361,34.681c-0.242-0.016-0.429-0.225-0.41-0.476c0.012-0.246,0.23-0.432,0.476-0.415
		c0.247,0.018,0.433,0.226,0.416,0.477c-0.017,0.246-0.23,0.432-0.477,0.415H59.361z"/>
	<path fill="#FFFFFF" d="M62.622,36.15l0.038-2.959l0.378,0.101l-0.046,1.49c-0.012,0.371-0.028,0.731-0.051,1.012l0.008,0.002
		c0.119-0.264,0.293-0.569,0.484-0.901l0.743-1.3l0.374,0.1l-0.038,1.495c-0.01,0.355-0.025,0.698-0.061,1.001l0.008,0.001
		c0.139-0.288,0.3-0.575,0.479-0.897l0.74-1.301l0.366,0.098l-1.527,2.561l-0.373-0.099l0.035-1.533
		c0.008-0.381,0.024-0.667,0.061-0.957l-0.009-0.002c-0.119,0.267-0.256,0.517-0.455,0.847l-0.781,1.338L62.622,36.15z"/>
	<path fill="#FFFFFF" d="M67.122,37.73c-0.691-0.319-0.925-1.073-0.561-1.861c0.38-0.827,1.139-1.133,1.835-0.812
		c0.715,0.329,0.924,1.087,0.567,1.859c-0.411,0.893-1.177,1.122-1.837,0.817L67.122,37.73z M67.264,37.463
		c0.534,0.246,1.061-0.105,1.334-0.697c0.238-0.518,0.216-1.184-0.343-1.442c-0.561-0.258-1.079,0.136-1.339,0.7
		c-0.253,0.549-0.185,1.194,0.344,1.438L67.264,37.463z"/>
	<path fill="#FFFFFF" d="M70.762,36.394c0.178,0.069,0.421,0.195,0.632,0.332c0.332,0.214,0.508,0.42,0.57,0.652
		c0.051,0.18,0.016,0.391-0.106,0.58c-0.203,0.314-0.543,0.394-0.849,0.317l-0.006,0.011c0.141,0.182,0.141,0.425,0.039,0.715
		c-0.138,0.386-0.231,0.656-0.244,0.779l-0.322-0.209c0.005-0.093,0.086-0.334,0.215-0.677c0.144-0.379,0.092-0.588-0.183-0.782
		l-0.292-0.189l-0.675,1.045l-0.31-0.201L70.762,36.394z M70.366,37.688l0.318,0.205c0.332,0.215,0.661,0.169,0.839-0.106
		c0.201-0.31,0.063-0.592-0.265-0.805c-0.15-0.097-0.263-0.15-0.325-0.17L70.366,37.688z"/>
	<path fill="#FFFFFF" d="M73.384,38.157l0.287,0.24l-1.637,1.965l0.942,0.784l-0.198,0.239l-1.229-1.024L73.384,38.157z"/>
	<path fill="#FFFFFF" d="M75.545,40.104c0.181,0.146,0.381,0.326,0.581,0.542c0.36,0.391,0.53,0.751,0.527,1.094
		c0.003,0.35-0.143,0.687-0.484,1.001c-0.344,0.317-0.727,0.467-1.1,0.452c-0.381-0.018-0.787-0.246-1.165-0.656
		c-0.182-0.197-0.323-0.362-0.434-0.521L75.545,40.104z M73.93,42.101c0.051,0.08,0.143,0.18,0.241,0.287
		c0.534,0.584,1.153,0.597,1.723,0.073c0.508-0.461,0.558-1.028,0.027-1.605c-0.129-0.141-0.241-0.235-0.322-0.292L73.93,42.101z"/>
	<path fill="#FFFFFF" d="M76.854,45.47c-0.004,0.198,0.051,0.443,0.184,0.661c0.197,0.325,0.48,0.411,0.73,0.259
		c0.225-0.138,0.28-0.351,0.202-0.756c-0.098-0.489-0.038-0.864,0.304-1.073c0.381-0.232,0.858-0.088,1.148,0.388
		c0.151,0.247,0.205,0.467,0.207,0.612l-0.311,0.069c0.001-0.105-0.029-0.31-0.165-0.533c-0.204-0.334-0.481-0.339-0.647-0.238
		c-0.23,0.139-0.252,0.357-0.177,0.775c0.089,0.513,0.019,0.841-0.341,1.059c-0.378,0.231-0.877,0.155-1.229-0.422
		c-0.144-0.237-0.229-0.539-0.221-0.723L76.854,45.47z"/>
	<path fill="#FFFFFF" d="M78.707,49.812c-0.117-0.092-0.292-0.317-0.435-0.636c-0.331-0.738-0.112-1.498,0.75-1.885
		c0.823-0.369,1.624-0.06,1.987,0.751c0.145,0.323,0.169,0.563,0.162,0.674l-0.314,0.038c0.007-0.153-0.029-0.356-0.127-0.573
		c-0.275-0.613-0.849-0.846-1.537-0.538c-0.644,0.289-0.887,0.841-0.604,1.474c0.094,0.209,0.23,0.4,0.358,0.506L78.707,49.812z"/>
	<path fill="#FFFFFF" d="M81.83,50.367l-1.154,0.332l0.383,1.334l1.153-0.331l0.103,0.359l-2.757,0.791l-0.103-0.36l1.292-0.371
		l-0.381-1.333l-1.294,0.37l-0.102-0.359l2.757-0.791L81.83,50.367z"/>
	<path fill="#FFFFFF" d="M79.895,55.113c-0.096-0.755,0.42-1.353,1.28-1.463c0.903-0.114,1.565,0.367,1.662,1.127
		c0.1,0.781-0.431,1.36-1.276,1.466c-0.975,0.125-1.575-0.404-1.667-1.125V55.113z M80.197,55.092
		c0.073,0.582,0.652,0.843,1.298,0.761c0.565-0.072,1.118-0.443,1.041-1.054c-0.078-0.613-0.687-0.844-1.303-0.766
		c-0.6,0.076-1.111,0.476-1.037,1.054L80.197,55.092z"/>
	<path fill="#FFFFFF" d="M80.066,58.561c0.023-0.762,0.625-1.271,1.493-1.246c0.91,0.027,1.489,0.607,1.466,1.372
		c-0.023,0.786-0.638,1.275-1.488,1.25c-0.982-0.029-1.493-0.645-1.471-1.373L80.066,58.561z M80.368,58.588
		c-0.019,0.585,0.512,0.934,1.164,0.953c0.569,0.018,1.174-0.263,1.192-0.88c0.018-0.617-0.547-0.94-1.168-0.959
		c-0.604-0.018-1.171,0.297-1.188,0.879C80.368,58.582,80.368,58.588,80.368,58.588z"/>
	<path fill="#FFFFFF" d="M82.761,61.354l-0.058,0.37l-2.526-0.404l-0.193,1.21l-0.307-0.049l0.253-1.58L82.761,61.354z"/>
	<path fill="#FFFFFF" d="M79.933,65.354c0.077-0.23,0.326-0.357,0.565-0.278c0.235,0.073,0.36,0.331,0.281,0.564
		c-0.078,0.234-0.327,0.362-0.564,0.283c-0.234-0.079-0.361-0.332-0.283-0.565L79.933,65.354z"/>
</g>
<g>
	<circle fill="#FFFFFF" cx="57.75" cy="57.877" r="20.83"/>
	
		<linearGradient id="SVGID_1_" gradientUnits="userSpaceOnUse" x1="21.4103" y1="65.2198" x2="44.2441" y2="32.6098" gradientTransform="matrix(1 0 0 -1 24.945 106.816)">
		<stop  offset="0.2247" style="stop-color:#B2BCD9"/>
		<stop  offset="0.3395" style="stop-color:#99ACCE"/>
		<stop  offset="0.5831" style="stop-color:#5A84B3"/>
		<stop  offset="0.8989" style="stop-color:#004B8D"/>
	</linearGradient>
	<path fill="url(#SVGID_1_)" d="M77.694,57.865c0,11.017-8.93,19.946-19.947,19.946c-9.365,0-17.218-6.452-19.363-15.153
		c3.903-0.045,7.606-0.918,10.948-2.442v-7.764c0-0.615-0.214-1.065-0.641-1.349c-0.426-0.283-1.184-0.426-2.274-0.426v-0.719
		c1.445-0.049,2.77-0.133,3.975-0.255c1.206-0.121,2.245-0.304,3.118-0.546l0.018,11.275c0,0.639,0,1.337,0,2.095
		c0,0.735-0.01,1.457-0.035,2.166c-0.024,0.711-0.06,1.374-0.107,1.989c-0.048,0.615-0.107,1.136-0.179,1.562
		c1.185,0.688,2.501,1.255,3.946,1.706c1.446,0.449,2.797,0.673,4.053,0.673c1.067,0,2.097-0.16,3.092-0.48
		c0.996-0.319,1.879-0.787,2.648-1.405c0.77-0.615,1.393-1.372,1.867-2.275c0.475-0.901,0.711-1.921,0.711-3.059
		c0-1.043-0.178-2.003-0.534-2.88c-0.356-0.878-0.854-1.635-1.497-2.277c-0.64-0.641-1.399-1.144-2.277-1.511
		c-0.879-0.368-1.84-0.552-2.884-0.552c-0.784,0-1.584,0.138-2.402,0.412c-0.82,0.275-1.561,0.616-2.225,1.02v-3.356
		c3.593-3.755,6.12-8.534,7.094-13.858c-4.446-1.888-9.598-2.134-14.472-0.283c-5.414,2.054-9.373,6.272-11.269,11.296
		c1.827-5.409,5.967-9.988,11.719-12.173c4.803-1.822,9.821-1.661,14.204,0.051c0-0.004,0.002-0.009,0.003-0.013
		C72.422,42.177,77.694,49.403,77.694,57.865z M58.314,68.079c0.544,0.937,1.467,1.404,2.77,1.404c1.301,0,2.225-0.467,2.771-1.404
		c0.545-0.934,0.817-2.408,0.817-4.423c0-2.012-0.272-3.486-0.817-4.422c-0.545-0.936-1.47-1.402-2.771-1.402
		c-1.303,0-2.226,0.466-2.77,1.402c-0.545,0.936-0.818,2.41-0.818,4.422C57.497,65.671,57.769,67.146,58.314,68.079z M53.116,46.916
		c0.553-0.539,0.829-1.214,0.829-2.026c0-0.811-0.276-1.486-0.829-2.026c-0.551-0.541-1.222-0.811-2.007-0.811
		c-0.786,0-1.457,0.27-2.008,0.811c-0.553,0.54-0.828,1.215-0.828,2.026c0,0.812,0.276,1.487,0.828,2.026
		c0.552,0.541,1.222,0.811,2.008,0.811C51.895,47.727,52.566,47.457,53.116,46.916z"/>
</g>
<g>
	<path fill="#FFFFFF" d="M78.084,39.767c4.288,4.812,6.896,11.154,6.896,18.107c0,15.038-12.191,27.23-27.23,27.23
		c-1.726,0-3.415-0.163-5.053-0.47c2.172,0.571,4.451,0.876,6.801,0.876c0.044,0,0.085-0.001,0.129-0.001
		c14.422-0.966,25.822-12.966,25.822-27.634c0-4.54-1.093-8.828-3.031-12.609C81.218,43.245,79.758,41.398,78.084,39.767z"/>
	<path fill="#FFFFFF" d="M30.52,57.874c0-13.489,9.809-24.684,22.681-26.85c2.026-0.455,4.133-0.698,6.296-0.698
		c0.507,0,1.009,0.015,1.509,0.04c-1.07-0.125-2.156-0.191-3.258-0.191c-15.297,0-27.699,12.402-27.699,27.699
		c0,6.38,2.159,12.254,5.783,16.939c-1.434-2.124-2.588-4.452-3.413-6.929C31.194,64.785,30.52,61.409,30.52,57.874z"/>
</g>
<path fill="#FFFFFF" d="M86.411,38.779c0,0.919-0.711,1.636-1.635,1.636c-0.923,0-1.636-0.717-1.636-1.636
	c0-0.919,0.713-1.635,1.636-1.635C85.7,37.143,86.411,37.86,86.411,38.779z M83.395,38.779c0,0.782,0.589,1.403,1.381,1.403
	c0.791,0,1.38-0.621,1.38-1.403c0-0.782-0.59-1.403-1.38-1.403C83.984,37.376,83.395,37.996,83.395,38.779z M84.416,39.724h-0.233
	v-1.891h0.724c0.428,0,0.617,0.185,0.617,0.524c0,0.333-0.219,0.483-0.475,0.528l0.563,0.839h-0.272l-0.532-0.839h-0.391V39.724z
	 M84.723,38.687c0.285,0,0.566-0.009,0.566-0.33c0-0.264-0.22-0.326-0.448-0.326h-0.426v0.656
	C84.416,38.687,84.723,38.687,84.723,38.687z"/>
</svg>
