<?xml version="1.0" encoding="utf-8"?>
<!-- Generator: Adobe Illustrator 17.0.0, SVG Export Plug-In . SVG Version: 6.00 Build 0)  -->
<!DOCTYPE svg PUBLIC "-//W3C//DTD SVG 1.1//EN" "http://www.w3.org/Graphics/SVG/1.1/DTD/svg11.dtd">
<svg version="1.1" id="Layer_1" xmlns="http://www.w3.org/2000/svg" xmlns:xlink="http://www.w3.org/1999/xlink" x="0px" y="0px"
	 width="115.444px" height="115.456px" viewBox="0 0 115.444 115.456" enable-background="new 0 0 115.444 115.456"
	 xml:space="preserve">
<g>
	<path fill="#004B8D" d="M100.977,85.604l-0.301-1.455l0.307-0.517l0.454,1.197L100.977,85.604z M97.174,83.497l1.133-1.903
		l-1.774-1.057l-1.267,2.13l-0.534-0.317l1.652-2.771l4.914,2.927l-1.585,2.662l-0.533-0.317l1.204-2.02l-1.554-0.923l-1.133,1.905
		L97.174,83.497z"/>
	<path fill="#004B8D" d="M91.274,87.271c0.057-0.289,0.29-0.807,0.717-1.356c0.994-1.271,2.539-1.593,4.024-0.43
		c1.417,1.109,1.617,2.809,0.525,4.205c-0.434,0.555-0.837,0.821-1.04,0.913l-0.358-0.519c0.274-0.13,0.602-0.382,0.892-0.754
		c0.827-1.057,0.7-2.286-0.482-3.212c-1.11-0.869-2.308-0.784-3.161,0.306c-0.284,0.362-0.491,0.78-0.561,1.102L91.274,87.271z"/>
	<path fill="#004B8D" d="M88.246,90.002c1.095-1.053,2.664-0.939,3.865,0.309c1.26,1.309,1.278,2.942,0.174,4.002
		c-1.131,1.089-2.689,0.925-3.865-0.298c-1.359-1.413-1.228-3.001-0.181-4.008L88.246,90.002z M88.639,90.459
		c-0.845,0.812-0.576,2.049,0.326,2.985c0.788,0.82,2.042,1.264,2.927,0.412c0.887-0.854,0.533-2.102-0.326-2.996
		c-0.835-0.87-2.085-1.21-2.922-0.404L88.639,90.459z"/>
	<path fill="#004B8D" d="M88.188,97.752l-0.603,0.441l-3.015-4.116l-1.971,1.445l-0.367-0.5l2.575-1.887L88.188,97.752z"/>
	<path fill="#004B8D" d="M79.407,99.817l1.927-1.096l-1.021-1.792l-2.152,1.226l-0.307-0.538l2.802-1.598l2.833,4.973l-2.693,1.531
		l-0.306-0.537l2.043-1.163l-0.894-1.571l-1.924,1.097L79.407,99.817z"/>
	<path fill="#004B8D" d="M75.181,104.999c-0.414,0.207-0.905,0.424-1.46,0.607c-1.01,0.335-1.801,0.345-2.424,0.058
		c-0.635-0.28-1.13-0.823-1.419-1.701c-0.294-0.887-0.25-1.704,0.082-2.37c0.347-0.678,1.097-1.229,2.152-1.579
		c0.508-0.166,0.923-0.288,1.303-0.357L75.181,104.999z M72.882,100.42c-0.187,0.026-0.445,0.112-0.719,0.203
		c-1.502,0.486-2.036,1.602-1.551,3.071c0.422,1.299,1.409,1.856,2.893,1.368c0.362-0.12,0.627-0.243,0.797-0.345L72.882,100.42z"/>
	<path fill="#004B8D" d="M67.213,107.338l-0.573-3.347c-0.215-1.257-0.867-1.695-1.621-1.566c-0.827,0.142-1.277,0.787-1.064,2.025
		l0.573,3.347l-0.738,0.126l-0.563-3.296c-0.296-1.732,0.496-2.59,1.717-2.801c1.156-0.198,2.136,0.306,2.438,2.063l0.568,3.322
		L67.213,107.338z"/>
	<path fill="#004B8D" d="M52.663,104.875c-0.005,0.797-0.011,1.768-0.052,2.47l0.018,0.002c0.243-0.649,0.513-1.358,0.847-2.128
		l1.171-2.711l0.559,0.03l0.774,2.775c0.223,0.83,0.402,1.571,0.521,2.259l0.018,0.002c0.06-0.712,0.156-1.658,0.258-2.52
		l0.296-2.439l0.702,0.041l-0.733,5.687l-0.939-0.056l-0.814-2.818c-0.197-0.717-0.346-1.355-0.466-1.957h-0.017
		c-0.187,0.566-0.426,1.181-0.723,1.886l-1.178,2.705l-0.94-0.057l-0.022-5.731l0.728,0.042L52.663,104.875z"/>
	<path fill="#004B8D" d="M47.597,101.366c1.482,0.338,2.249,1.711,1.867,3.401c-0.402,1.773-1.757,2.681-3.247,2.344
		c-1.532-0.346-2.252-1.735-1.877-3.392c0.433-1.914,1.833-2.676,3.249-2.355L47.597,101.366z M47.431,101.948
		c-1.144-0.259-2.028,0.645-2.314,1.911c-0.251,1.109,0.066,2.401,1.266,2.671c1.2,0.271,2.049-0.71,2.323-1.919
		c0.266-1.175-0.133-2.406-1.268-2.662L47.431,101.948z"/>
	<path fill="#004B8D" d="M43.061,100.243l-2.094,5.325l-0.758-0.301l-0.638-3.36c-0.143-0.778-0.241-1.455-0.268-2.103l-0.027-0.002
		c-0.217,0.736-0.455,1.39-0.779,2.211l-0.879,2.238l-0.647-0.257l2.094-5.324l0.695,0.274l0.628,3.366
		c0.139,0.738,0.255,1.487,0.288,2.165l0.028,0.002c0.224-0.687,0.469-1.33,0.815-2.215l0.895-2.275L43.061,100.243z"/>
	<path fill="#004B8D" d="M34.104,102.525c-0.431-0.17-0.919-0.393-1.425-0.689c-0.918-0.533-1.452-1.119-1.65-1.774
		c-0.214-0.664-0.133-1.394,0.332-2.191c0.469-0.809,1.109-1.321,1.828-1.511c0.739-0.189,1.647,0.004,2.609,0.563
		c0.462,0.268,0.828,0.5,1.133,0.735L34.104,102.525z M36.003,97.769c-0.144-0.122-0.38-0.259-0.629-0.404
		c-1.361-0.799-2.55-0.46-3.326,0.876c-0.693,1.178-0.454,2.289,0.896,3.074c0.33,0.192,0.597,0.306,0.787,0.368L36.003,97.769z"/>
	<path fill="#004B8D" d="M27.263,94.398l1.749,1.363l1.267-1.629l-1.956-1.521l0.381-0.489l2.545,1.978l-3.512,4.517l-2.448-1.904
		l0.382-0.487l1.856,1.444l1.11-1.427l-1.749-1.36L27.263,94.398z"/>
	<path fill="#004B8D" d="M23.315,89.73c0.33,0.353,0.314,0.914-0.053,1.254c-0.356,0.341-0.924,0.313-1.26-0.048
		c-0.335-0.362-0.32-0.92,0.047-1.261c0.361-0.334,0.924-0.312,1.261,0.05L23.315,89.73z"/>
	<path fill="#004B8D" d="M18.794,80.643c0.257,0.147,0.673,0.535,1.054,1.118c0.88,1.351,0.686,2.916-0.892,3.946
		c-1.508,0.983-3.179,0.625-4.151-0.86c-0.383-0.591-0.507-1.058-0.527-1.279l0.607-0.173c0.034,0.303,0.167,0.693,0.427,1.091
		c0.734,1.122,1.938,1.401,3.197,0.58c1.181-0.769,1.486-1.934,0.73-3.09c-0.25-0.384-0.579-0.718-0.862-0.885L18.794,80.643z"/>
	<path fill="#004B8D" d="M17.197,76.918c0.646,1.375,0.031,2.827-1.537,3.561c-1.644,0.771-3.196,0.262-3.845-1.123
		c-0.666-1.42-0.012-2.843,1.526-3.564c1.776-0.832,3.237-0.196,3.852,1.12L17.197,76.918z M16.638,77.142
		c-0.498-1.058-1.754-1.202-2.931-0.65c-1.03,0.482-1.854,1.525-1.331,2.638c0.523,1.117,1.821,1.183,2.942,0.657
		c1.092-0.511,1.818-1.586,1.323-2.636L16.638,77.142z"/>
	<path fill="#004B8D" d="M9.879,74.372l-0.224-0.713l4.87-1.528l-0.733-2.333l0.591-0.184l0.956,3.044L9.879,74.372z"/>
	<path fill="#004B8D" d="M10.759,65.372l0.413,2.179l2.026-0.386l-0.462-2.435l0.608-0.114l0.602,3.17l-5.621,1.067l-0.577-3.044
		l0.609-0.117l0.437,2.311l1.776-0.337l-0.413-2.176L10.759,65.372z"/>
	<path fill="#004B8D" d="M12.587,58.25c0.146,0.324,0.369,0.974,0.409,1.746c0.048,0.866-0.134,1.59-0.64,2.177
		c-0.447,0.518-1.193,0.865-2.084,0.913c-1.704,0.092-3.013-1.018-3.117-2.935c-0.036-0.661,0.08-1.194,0.186-1.447l0.612,0.154
		c-0.127,0.311-0.209,0.699-0.178,1.277c0.075,1.39,0.989,2.25,2.421,2.174c1.449-0.08,2.258-0.989,2.186-2.33
		c-0.026-0.482-0.112-0.809-0.205-0.973l-1.704,0.091l0.062,1.153l-0.593,0.032l-0.102-1.881L12.587,58.25z"/>
	<path fill="#004B8D" d="M7.272,55.022l5.713,0.311l-0.041,0.746l-5.711-0.31L7.272,55.022z"/>
	<path fill="#004B8D" d="M13.602,50.791c-0.241,1.501-1.563,2.355-3.273,2.082c-1.793-0.286-2.79-1.58-2.55-3.089
		c0.247-1.55,1.59-2.36,3.264-2.091c1.937,0.309,2.787,1.658,2.56,3.09L13.602,50.791z M13.011,50.661
		c0.185-1.156-0.776-1.981-2.057-2.184c-1.124-0.18-2.392,0.22-2.585,1.435c-0.195,1.215,0.839,2,2.064,2.194
		c1.19,0.191,2.393-0.288,2.577-1.436L13.011,50.661z"/>
	<path fill="#004B8D" d="M10.066,41.371c0.109-0.453,0.261-0.967,0.478-1.51c0.395-0.984,0.897-1.597,1.517-1.889
		c0.626-0.306,1.36-0.333,2.218,0.012c0.866,0.349,1.464,0.911,1.756,1.594c0.294,0.703,0.234,1.631-0.181,2.663
		c-0.2,0.497-0.377,0.893-0.566,1.228L10.066,41.371z M15.046,42.566c0.102-0.161,0.202-0.413,0.31-0.682
		c0.597-1.462,0.088-2.588-1.344-3.165c-1.266-0.517-2.33-0.121-2.912,1.328c-0.143,0.355-0.218,0.634-0.252,0.832L15.046,42.566z"
		/>
	<path fill="#004B8D" d="M17.125,33.429l-1.094,1.925l1.792,1.02l1.225-2.155l0.539,0.307l-1.594,2.804l-4.974-2.828l1.531-2.693
		l0.539,0.306l-1.162,2.045l1.571,0.894l1.096-1.926L17.125,33.429z"/>
	<path fill="#004B8D" d="M16.09,29.464l0.443-0.6l4.113,3.019l1.446-1.97l0.5,0.367l-1.89,2.572L16.09,29.464z"/>
	<path fill="#004B8D" d="M27.662,21.604c-0.562-0.567-1.244-1.256-1.712-1.783l-0.013,0.012c0.288,0.63,0.597,1.323,0.906,2.103
		l1.092,2.747l-0.42,0.372l-2.509-1.416c-0.745-0.429-1.396-0.828-1.967-1.227l-0.012,0.012c0.46,0.544,1.061,1.282,1.599,1.961
		l1.515,1.936l-0.525,0.468l-3.506-4.539l0.704-0.626l2.569,1.418c0.646,0.37,1.203,0.714,1.713,1.057l0.012-0.012
		c-0.27-0.532-0.534-1.139-0.824-1.847l-1.08-2.744l0.704-0.627l4.07,4.037l-0.544,0.486L27.662,21.604z"/>
	<path fill="#004B8D" d="M29.326,16.411l1.82,2.865c0.684,1.075,1.455,1.227,2.099,0.817c0.71-0.45,0.875-1.219,0.201-2.278
		l-1.821-2.867l0.629-0.402l1.795,2.823c0.942,1.483,0.544,2.582-0.502,3.246c-0.99,0.63-2.089,0.543-3.046-0.96l-1.807-2.844
		L29.326,16.411z"/>
	<path fill="#004B8D" d="M37.405,18.257l-2.323-5.227l0.745-0.332l2.843,1.903c0.652,0.445,1.204,0.851,1.686,1.285l0.02-0.018
		c-0.372-0.67-0.672-1.301-1.029-2.107l-0.976-2.194l0.637-0.284l2.323,5.229l-0.682,0.303l-2.839-1.915
		c-0.625-0.421-1.237-0.862-1.746-1.315l-0.02,0.018c0.332,0.644,0.619,1.268,1.005,2.136l0.993,2.236L37.405,18.257z"/>
	<path fill="#004B8D" d="M42.054,10.274c0.425-0.186,0.925-0.379,1.49-0.532c1.024-0.281,1.815-0.25,2.422,0.067
		c0.623,0.313,1.087,0.88,1.331,1.774c0.247,0.9,0.163,1.715-0.205,2.362c-0.382,0.661-1.157,1.171-2.229,1.465
		c-0.516,0.141-0.937,0.24-1.321,0.291L42.054,10.274z M44.113,14.963c0.19-0.018,0.453-0.09,0.73-0.165
		c1.526-0.41,2.117-1.496,1.708-2.987c-0.354-1.319-1.312-1.928-2.818-1.515c-0.369,0.102-0.638,0.209-0.815,0.303L44.113,14.963z"
		/>
	<path fill="#004B8D" d="M52.289,13.948c-1.51,0.174-2.689-0.872-2.886-2.592c-0.207-1.803,0.772-3.112,2.29-3.287
		c1.559-0.178,2.699,0.896,2.891,2.585c0.224,1.947-0.845,3.128-2.288,3.294L52.289,13.948z M52.254,13.344
		c1.163-0.131,1.699-1.281,1.552-2.569c-0.129-1.13-0.856-2.243-2.078-2.104c-1.224,0.141-1.7,1.349-1.56,2.58
		c0.138,1.198,0.922,2.226,2.078,2.096L52.254,13.344z"/>
	<path fill="#004B8D" d="M60.486,11.641c-0.482-0.032-0.855-0.449-0.819-0.95c0.023-0.491,0.458-0.862,0.949-0.829
		c0.492,0.035,0.863,0.45,0.83,0.951c-0.033,0.491-0.459,0.861-0.951,0.828H60.486z"/>
	<path fill="#004B8D" d="M66.99,14.571l0.075-5.902l0.754,0.202l-0.092,2.973c-0.023,0.741-0.057,1.459-0.101,2.019l0.016,0.005
		c0.238-0.526,0.585-1.135,0.966-1.797l1.482-2.592l0.745,0.2l-0.075,2.983c-0.021,0.707-0.049,1.393-0.121,1.998l0.017,0.003
		c0.277-0.575,0.599-1.147,0.955-1.79l1.475-2.594l0.731,0.196l-3.045,5.108l-0.744-0.198l0.07-3.057
		c0.017-0.76,0.047-1.33,0.121-1.909l-0.018-0.004c-0.238,0.533-0.511,1.031-0.907,1.689l-1.557,2.669L66.99,14.571z"/>
	<path fill="#004B8D" d="M75.967,17.723c-1.378-0.637-1.845-2.139-1.118-3.712c0.758-1.65,2.272-2.261,3.661-1.62
		c1.427,0.655,1.844,2.168,1.132,3.708c-0.821,1.781-2.348,2.237-3.665,1.63L75.967,17.723z M76.25,17.191
		c1.064,0.49,2.117-0.21,2.662-1.391c0.474-1.034,0.43-2.361-0.684-2.877c-1.118-0.515-2.153,0.272-2.672,1.396
		c-0.504,1.095-0.369,2.382,0.687,2.869L76.25,17.191z"/>
	<path fill="#004B8D" d="M83.228,15.058c0.354,0.138,0.84,0.389,1.26,0.662c0.662,0.427,1.013,0.837,1.138,1.301
		c0.102,0.359,0.031,0.78-0.211,1.157c-0.405,0.626-1.084,0.786-1.694,0.633l-0.013,0.022c0.281,0.364,0.281,0.847,0.077,1.426
		c-0.275,0.771-0.461,1.309-0.487,1.554l-0.643-0.418c0.01-0.186,0.171-0.667,0.428-1.35c0.288-0.755,0.184-1.174-0.366-1.56
		l-0.583-0.378l-1.347,2.084l-0.618-0.401L83.228,15.058z M82.438,17.639l0.635,0.409c0.662,0.428,1.318,0.337,1.673-0.211
		c0.4-0.619,0.126-1.182-0.529-1.606c-0.299-0.193-0.525-0.298-0.649-0.338L82.438,17.639z"/>
	<path fill="#004B8D" d="M88.458,18.575l0.573,0.478l-3.265,3.92l1.878,1.564l-0.395,0.476l-2.452-2.044L88.458,18.575z"/>
	<path fill="#004B8D" d="M92.769,22.459c0.361,0.291,0.76,0.651,1.158,1.081c0.718,0.78,1.057,1.498,1.052,2.181
		c0.007,0.697-0.285,1.371-0.965,1.997c-0.687,0.633-1.45,0.931-2.194,0.901c-0.76-0.036-1.57-0.491-2.323-1.309
		c-0.364-0.392-0.645-0.723-0.866-1.039L92.769,22.459z M89.548,26.442c0.102,0.159,0.286,0.359,0.481,0.573
		c1.064,1.165,2.301,1.192,3.437,0.146c1.012-0.921,1.112-2.051,0.054-3.201c-0.258-0.281-0.48-0.47-0.643-0.583L89.548,26.442z"/>
	<path fill="#004B8D" d="M95.381,33.162c-0.008,0.394,0.102,0.884,0.367,1.318c0.392,0.649,0.957,0.821,1.456,0.517
		c0.448-0.275,0.559-0.699,0.403-1.508c-0.196-0.975-0.075-1.723,0.607-2.139c0.759-0.463,1.711-0.176,2.289,0.775
		c0.3,0.493,0.409,0.932,0.413,1.22l-0.62,0.138c0.002-0.21-0.058-0.619-0.329-1.062c-0.406-0.666-0.959-0.677-1.291-0.474
		c-0.458,0.277-0.502,0.712-0.352,1.546c0.178,1.024,0.037,1.677-0.68,2.113c-0.754,0.461-1.749,0.31-2.451-0.842
		c-0.288-0.472-0.456-1.076-0.44-1.443L95.381,33.162z"/>
	<path fill="#004B8D" d="M99.077,41.823c-0.233-0.184-0.582-0.632-0.867-1.268c-0.659-1.472-0.224-2.988,1.497-3.759
		c1.642-0.736,3.239-0.12,3.963,1.499c0.289,0.644,0.337,1.124,0.323,1.345l-0.626,0.075c0.014-0.304-0.059-0.71-0.252-1.144
		c-0.549-1.223-1.693-1.687-3.066-1.073c-1.284,0.576-1.77,1.678-1.204,2.941c0.188,0.418,0.46,0.797,0.713,1.01L99.077,41.823z"/>
	<path fill="#004B8D" d="M105.307,42.93l-2.302,0.661l0.764,2.661l2.301-0.66l0.205,0.717l-5.5,1.577l-0.205-0.718l2.578-0.74
		l-0.76-2.66l-2.582,0.739l-0.204-0.717l5.499-1.578L105.307,42.93z"/>
	<path fill="#004B8D" d="M101.447,52.398c-0.192-1.507,0.837-2.699,2.554-2.919c1.802-0.228,3.122,0.733,3.315,2.248
		c0.2,1.557-0.86,2.713-2.544,2.925c-1.946,0.248-3.142-0.805-3.325-2.245V52.398z M102.05,52.357c0.146,1.16,1.3,1.682,2.589,1.517
		c1.127-0.143,2.23-0.884,2.076-2.103c-0.157-1.222-1.37-1.685-2.599-1.527c-1.196,0.152-2.216,0.95-2.068,2.102L102.05,52.357z"/>
	<path fill="#004B8D" d="M101.786,59.277c0.046-1.519,1.247-2.536,2.979-2.486c1.815,0.054,2.971,1.21,2.924,2.737
		c-0.046,1.568-1.273,2.543-2.969,2.494c-1.958-0.058-2.978-1.286-2.935-2.738L101.786,59.277z M102.39,59.331
		c-0.037,1.167,1.021,1.863,2.321,1.901c1.135,0.035,2.342-0.524,2.378-1.755c0.036-1.231-1.091-1.875-2.33-1.912
		c-1.204-0.035-2.335,0.593-2.369,1.754C102.39,59.318,102.39,59.331,102.39,59.331z"/>
	<path fill="#004B8D" d="M107.164,64.847l-0.116,0.739l-5.039-0.805l-0.385,2.414l-0.611-0.098l0.504-3.151L107.164,64.847z"/>
	<path fill="#004B8D" d="M101.521,72.826c0.154-0.459,0.651-0.712,1.127-0.554c0.469,0.145,0.718,0.659,0.562,1.126
		c-0.156,0.468-0.652,0.722-1.126,0.565c-0.468-0.158-0.72-0.662-0.564-1.128L101.521,72.826z"/>
</g>
<g>
	<circle fill="#FFFFFF" cx="57.271" cy="57.911" r="41.552"/>
	
		<linearGradient id="SVGID_1_" gradientUnits="userSpaceOnUse" x1="9.5971" y1="81.3811" x2="55.1454" y2="16.3314" gradientTransform="matrix(1 0 0 -1 24.945 106.816)">
		<stop  offset="0.2247" style="stop-color:#B2BCD9"/>
		<stop  offset="0.3395" style="stop-color:#99ACCE"/>
		<stop  offset="0.5831" style="stop-color:#5A84B3"/>
		<stop  offset="0.8989" style="stop-color:#004B8D"/>
	</linearGradient>
	<path fill="url(#SVGID_1_)" d="M97.056,57.888c0,21.977-17.813,39.788-39.789,39.788c-18.681,0-34.345-12.87-38.625-30.227
		c7.786-0.09,15.172-1.831,21.838-4.871V47.092c0-1.227-0.427-2.124-1.28-2.691c-0.849-0.565-2.361-0.85-4.535-0.85v-1.434
		c2.883-0.097,5.526-0.266,7.929-0.508c2.406-0.242,4.477-0.606,6.221-1.09l0.036,22.491c0,1.276,0,2.668,0,4.178
		c0,1.466-0.021,2.906-0.07,4.321c-0.048,1.418-0.119,2.74-0.213,3.967c-0.096,1.228-0.213,2.267-0.356,3.117
		c2.364,1.372,4.988,2.503,7.872,3.402c2.885,0.896,5.579,1.343,8.084,1.343c2.128,0,4.184-0.319,6.169-0.957
		c1.987-0.637,3.748-1.569,5.283-2.803c1.536-1.228,2.779-2.737,3.725-4.538c0.947-1.797,1.417-3.832,1.417-6.102
		c0-2.08-0.355-3.996-1.064-5.744c-0.71-1.751-1.704-3.262-2.986-4.542c-1.278-1.279-2.79-2.281-4.542-3.015
		c-1.753-0.734-3.669-1.102-5.752-1.102c-1.564,0-3.159,0.275-4.792,0.822c-1.636,0.549-3.114,1.229-4.438,2.035v-6.694
		c7.167-7.489,12.208-17.023,14.15-27.644c-8.868-3.766-19.146-4.257-28.868-0.565C31.67,26.585,23.771,35,19.989,45.021
		c3.644-10.79,11.902-19.923,23.377-24.282c9.581-3.634,19.59-3.314,28.333,0.101c0.001-0.009,0.005-0.019,0.006-0.025
		C86.54,26.594,97.056,41.008,97.056,57.888z M58.397,78.263c1.085,1.868,2.927,2.801,5.526,2.801c2.594,0,4.439-0.932,5.527-2.801
		c1.087-1.863,1.629-4.804,1.629-8.824c0-4.014-0.542-6.953-1.629-8.821c-1.088-1.866-2.933-2.797-5.527-2.797
		c-2.599,0-4.441,0.93-5.526,2.797c-1.087,1.866-1.631,4.807-1.631,8.821C56.767,73.459,57.31,76.4,58.397,78.263z M48.029,36.047
		c1.103-1.075,1.654-2.422,1.654-4.042c0-1.618-0.551-2.965-1.654-4.042c-1.1-1.079-2.437-1.618-4.003-1.618
		c-1.568,0-2.905,0.539-4.006,1.618c-1.102,1.077-1.652,2.424-1.652,4.042c0,1.62,0.55,2.967,1.652,4.042
		c1.101,1.079,2.438,1.618,4.006,1.618C45.593,37.665,46.93,37.125,48.029,36.047z"/>
</g>
<g>
	<path fill="#004B8D" d="M97.833,21.787c8.553,9.6,13.755,22.25,13.755,36.119c0,29.997-24.319,54.317-54.317,54.317
		c-3.442,0-6.812-0.325-10.08-0.938c4.332,1.139,8.88,1.747,13.567,1.747c0.087,0,0.169-0.002,0.257-0.002
		c28.768-1.927,51.51-25.865,51.51-55.124c0-9.057-2.181-17.609-6.046-25.152C104.086,28.723,101.172,25.039,97.833,21.787z"/>
	<path fill="#004B8D" d="M2.955,57.905c0-26.907,19.566-49.239,45.244-53.559c4.041-0.907,8.244-1.392,12.56-1.392
		c1.011,0,2.013,0.03,3.01,0.079c-2.134-0.249-4.3-0.381-6.498-0.381c-30.514,0-55.253,24.739-55.253,55.253
		c0,12.726,4.306,24.444,11.535,33.789c-2.861-4.237-5.163-8.881-6.808-13.822C4.298,71.692,2.955,64.957,2.955,57.905z"/>
</g>
<path fill="#607CB0" d="M114.444,19.814c0,1.832-1.418,3.263-3.261,3.263c-1.841,0-3.262-1.431-3.262-3.263s1.421-3.262,3.262-3.262
	C113.026,16.552,114.444,17.982,114.444,19.814z M108.428,19.814c0,1.56,1.176,2.798,2.755,2.798c1.577,0,2.754-1.238,2.754-2.798
	c0-1.56-1.177-2.798-2.754-2.798C109.604,17.017,108.428,18.254,108.428,19.814z M110.464,21.7h-0.466v-3.771h1.445
	c0.853,0,1.231,0.369,1.231,1.046c0,0.665-0.437,0.963-0.948,1.053l1.122,1.674h-0.543l-1.061-1.674h-0.78V21.7z M111.078,19.631
	c0.569,0,1.13-0.019,1.13-0.657c0-0.526-0.438-0.651-0.894-0.651h-0.849v1.308C110.464,19.631,111.078,19.631,111.078,19.631z"/>
</svg>
