<?xml version="1.0" encoding="utf-8"?>
<!-- Generator: Adobe Illustrator 17.0.0, SVG Export Plug-In . SVG Version: 6.00 Build 0)  -->
<!DOCTYPE svg PUBLIC "-//W3C//DTD SVG 1.1//EN" "http://www.w3.org/Graphics/SVG/1.1/DTD/svg11.dtd">
<svg version="1.1" id="Layer_1" xmlns="http://www.w3.org/2000/svg" xmlns:xlink="http://www.w3.org/1999/xlink" x="0px" y="0px"
	 width="29.427px" height="30.54px" viewBox="0 0 29.427 30.54" enable-background="new 0 0 29.427 30.54" xml:space="preserve">
<g>
	<g>
		<path fill="#FFFFFF" d="M9.582,6.468c-1.917,2.28-3.773,1.736-3.773,1.736c-0.826,2.965,0.989,6.082,0.989,6.082h7.949V7.881h-4.3
			L9.582,6.468z"/>
		<path fill="#FFFFFF" d="M14.747,27.154V14.583H6.926c0,0,1.05,4.557-2.527,7.245h3.737L14.747,27.154z"/>
		<path fill="#FFFFFF" d="M15.097,27.154V14.583h7.652c0,0-0.878,4.557,2.699,7.245h-3.739L15.097,27.154z"/>
		<path fill="#FFFFFF" d="M23.848,8.204c0,0-1.858,0.544-3.774-1.736l-0.868,1.413h-4.112v6.404h7.765
			C22.859,14.286,24.672,11.169,23.848,8.204z"/>
		<g>
			<path fill="#FFFFFF" d="M2.933,7.758c0,0,0.919-1.741,2.54-1.485c0.083,0-1.533-2.843-1.883-3.053
				c0.004,0.04-2.627,0.519-3.168,2.794C0.402,6.015,2.367,7.029,2.933,7.758"/>
			<path fill="#FFFFFF" d="M4.81,4.538c0,0,0.541,0.878,0.821,1.581C5.669,6.213,5.75,6.411,5.787,6.581
				c0.039,0.176,0.08,0.511,0.017,1.154c0.022,0.025,1.665,0.755,3.379-1.479C9.222,6.274,8.201,3.947,7.607,3
				C7.607,2.988,6.637,4.98,4.81,4.538"/>
			<path fill="#FFFFFF" d="M26.722,7.758c0,0-0.918-1.741-2.541-1.485c-0.079,0,1.535-2.843,1.883-3.053
				c-0.001,0.04,2.629,0.519,3.17,2.794C29.253,6.015,27.289,7.029,26.722,7.758"/>
			<path fill="#FFFFFF" d="M24.846,4.427c0,0-0.607,0.985-0.871,1.705C23.957,6.182,23.92,6.3,23.9,6.363
				c-0.049,0.154-0.137,0.549-0.051,1.445c-0.022,0.025-1.661,0.57-3.379-1.664c-0.038,0.019,0.983-2.308,1.579-3.255
				C22.049,2.877,23.019,4.869,24.846,4.427"/>
			<path fill="#FFFFFF" d="M9.401,5.815c0,0,5.087-3.799,10.888-0.043c0.036,0,1.59-3.354,1.59-3.354S15.011-2.346,7.845,2.664
				C7.845,2.708,8.927,4.438,9.401,5.815"/>
			<path fill="#0E1A36" d="M9.458,7.602C8.224,8.747,7.046,8.971,6.323,8.973c-0.312,1.947,0.498,3.908,0.869,4.675l0,0h6.861V8.596
				h-4.01L9.458,7.602z"/>
			<path fill="#0E1A36" d="M8.356,21.191H6.062c1.715-2.095,1.751-4.613,1.629-5.893h6.363V25.78l0,0L8.356,21.191z"/>
			<path fill="#0E1A36" d="M21.454,21.191l-5.698,4.589l0,0V15.298h6.218c-0.08,1.269,0.027,3.794,1.769,5.893H21.454z"/>
			<path fill="#0E1A36" d="M19.577,8.596h-3.824v5.052l0,0h6.677c0.37-0.767,1.181-2.728,0.869-4.675
				c-0.723-0.002-1.901-0.226-3.135-1.372L19.577,8.596z"/>
			<path fill="#FFFFFF" d="M12.614,9.66c-0.133-0.132-0.335-0.237-0.6-0.313c-0.263-0.073-0.596-0.11-0.987-0.11
				c-1.045,0-1.891,0.242-2.516,0.719c-0.487,0.37-0.734,0.789-0.734,1.246c0,0.261,0.082,0.478,0.244,0.645
				c0.164,0.17,0.34,0.257,0.525,0.257c0.075,0,0.141-0.019,0.204-0.059c0.083-0.058,0.1-0.128,0.1-0.177
				c0-0.133-0.139-0.222-0.245-0.278c-0.143-0.075-0.247-0.155-0.301-0.233c-0.052-0.071-0.078-0.157-0.078-0.263
				c0-0.222,0.109-0.445,0.332-0.68c0.226-0.238,0.555-0.438,0.979-0.593c0.423-0.157,0.862-0.237,1.306-0.237
				c0.381,0,0.665,0.052,0.846,0.156c0.166,0.095,0.247,0.219,0.247,0.376c0,0.168-0.071,0.327-0.212,0.473
				c-0.147,0.154-0.316,0.263-0.504,0.325c-0.172,0.057-0.334,0.086-0.482,0.086l-0.289-0.001l0.247-0.696
				c0.075-0.211,0.141-0.373,0.202-0.497l0.079-0.16l-0.175,0.035c-0.269,0.053-0.597,0.093-0.975,0.118L9.772,9.801l-0.123,0.313
				l0.146-0.018c0.085-0.009,0.112-0.006,0.145,0.016c0.009,0.006,0.013,0.01,0.015,0.01c-0.001,0.015-0.007,0.052-0.036,0.136
				l-0.604,1.699c-0.085,0.231-0.192,0.385-0.317,0.456c-0.053,0.03-0.193,0.087-0.538,0.125l-0.059,0.007l-0.1,0.365l0.138-0.026
				c0.256-0.048,0.519-0.073,0.782-0.073c0.126,0,0.29,0.007,0.518,0.023c0.25,0.014,0.469,0.026,0.617,0.026
				c0.149,0,0.332-0.017,0.545-0.05l0.056-0.009l0.098-0.365l-0.14,0.03c-0.225,0.049-0.425,0.072-0.612,0.072
				c-0.123,0-0.263-0.006-0.419-0.017c0.047-0.118,0.091-0.239,0.131-0.359l0.308-0.821h0.239c0.438,0,0.819-0.055,1.165-0.167
				c0.352-0.111,0.625-0.261,0.811-0.448c0.193-0.194,0.291-0.397,0.291-0.603C12.828,9.957,12.756,9.801,12.614,9.66z"/>
			<path fill="#FFFFFF" d="M22.931,9.407c-0.14-0.064-0.331-0.095-0.584-0.095c-0.287,0-0.549,0.047-0.777,0.14
				c-0.236,0.095-0.443,0.243-0.633,0.455c-0.177,0.2-0.379,0.536-0.601,0.998c-0.379,0.025-0.88,0.038-1.529,0.039
				c0.236-0.561,0.436-0.947,0.596-1.148l0.108-0.137h-0.175c-0.719,0-1.212,0.017-1.467,0.052c-0.433,0.063-0.77,0.173-1.001,0.326
				c-0.247,0.164-0.372,0.357-0.372,0.577c0,0.128,0.044,0.233,0.127,0.306c0.082,0.069,0.175,0.103,0.287,0.103
				c0.09,0,0.166-0.02,0.227-0.061c0.09-0.061,0.109-0.137,0.109-0.19c0-0.064-0.036-0.136-0.11-0.218
				c-0.071-0.079-0.074-0.114-0.074-0.121c0-0.124,0.19-0.228,0.349-0.293c0.235-0.096,0.584-0.149,1.038-0.157l-0.346,0.807
				c-0.35,0.827-0.616,1.35-0.79,1.556c-0.165,0.194-0.333,0.288-0.515,0.288c-0.044,0-0.077-0.005-0.107-0.018
				c-0.015-0.005-0.057-0.025-0.134-0.091c-0.123-0.1-0.248-0.151-0.371-0.151c-0.082,0-0.152,0.02-0.204,0.056
				c-0.07,0.043-0.108,0.104-0.108,0.174c0,0.105,0.075,0.189,0.221,0.246c0.163,0.07,0.363,0.105,0.593,0.105
				c0.231,0,0.477-0.054,0.732-0.16c0.257-0.107,0.486-0.275,0.681-0.498c0.187-0.213,0.375-0.54,0.557-0.973
				c0.187-0.009,0.369-0.017,0.547-0.02l0.977-0.018l-0.276,0.611c-0.152,0.363-0.27,0.627-0.371,0.828l-0.083,0.165l0.179-0.045
				c0.262-0.066,0.518-0.046,0.864-0.021c0.207,0.016,0.357,0.023,0.471,0.023h0.379l0.098-0.323h-0.486
				c-0.087,0-0.201-0.008-0.36-0.025l-0.067-0.006c-0.008-0.001-0.015-0.002-0.022-0.003c0.436-1.26,0.823-2.098,1.151-2.493
				c0.18-0.229,0.36-0.345,0.535-0.345c0.075,0,0.17,0.04,0.276,0.116c0.247,0.176,0.453,0.174,0.595,0.091
				c0.071-0.043,0.111-0.106,0.111-0.179C23.174,9.605,23.131,9.495,22.931,9.407z"/>
			<path fill="#FFFFFF" d="M20.951,17.078c-0.103-0.007-0.221-0.019-0.358-0.037c-0.238-0.033-0.45-0.049-0.629-0.049
				c-0.345,0-0.655,0.049-0.923,0.147c-0.271,0.096-0.497,0.23-0.671,0.399c-0.181,0.176-0.273,0.357-0.273,0.537
				c0,0.094,0.025,0.187,0.072,0.275c0.045,0.089,0.112,0.173,0.205,0.26c0.063,0.057,0.204,0.154,0.446,0.307
				c0.237,0.153,0.381,0.252,0.439,0.304c0.087,0.076,0.148,0.147,0.181,0.208c0.031,0.058,0.045,0.111,0.045,0.163
				c0,0.17-0.128,0.327-0.392,0.479c-0.273,0.159-0.6,0.239-0.971,0.239c-0.114,0-0.226-0.016-0.332-0.046
				c-0.099-0.032-0.176-0.07-0.229-0.116c-0.05-0.041-0.093-0.112-0.133-0.218c-0.045-0.116-0.09-0.187-0.138-0.223
				c-0.143-0.116-0.397-0.121-0.563,0.001c-0.092,0.067-0.138,0.154-0.138,0.257c0,0.177,0.145,0.333,0.443,0.476
				c0.272,0.131,0.609,0.198,1.002,0.198c0.387,0,0.767-0.058,1.131-0.174c0.364-0.118,0.634-0.265,0.824-0.452
				c0.195-0.189,0.294-0.392,0.294-0.606c0-0.151-0.066-0.301-0.196-0.448c-0.123-0.141-0.378-0.335-0.757-0.576
				c-0.24-0.154-0.339-0.244-0.378-0.292c-0.047-0.057-0.071-0.122-0.071-0.193c0-0.137,0.097-0.266,0.288-0.384
				c0.206-0.131,0.441-0.194,0.717-0.194c0.169,0,0.303,0.035,0.4,0.104c0.085,0.058,0.127,0.137,0.127,0.242
				c0,0.088-0.014,0.218-0.043,0.399l-0.016,0.101h0.387l0.014-0.07c0.048-0.24,0.098-0.478,0.133-0.585
				c0.031-0.095,0.076-0.197,0.134-0.305l0.064-0.119L20.951,17.078z"/>
			<path fill="#FFFFFF" d="M11.873,16.713c-0.073,0.025-0.175,0.083-0.33,0.172l-0.087,0.049c-0.248,0.138-0.422,0.241-0.517,0.306
				c-0.187,0.123-0.339,0.243-0.452,0.357c-0.115,0.115-0.196,0.23-0.239,0.341c-0.048,0.121-0.049,0.229-0.004,0.318
				c0.037,0.075,0.101,0.119,0.181,0.125l0.026,0.001c0.06,0,0.124-0.017,0.19-0.052c0.058-0.03,0.103-0.067,0.131-0.107
				c0.056-0.075,0.046-0.133,0.027-0.171c-0.02-0.038-0.059-0.065-0.117-0.096c-0.026-0.012-0.031-0.017-0.03-0.016
				c-0.005-0.012-0.003-0.051,0.038-0.121c0.044-0.077,0.132-0.163,0.266-0.262c0.094-0.069,0.35-0.221,0.735-0.441
				c-0.447,0.868-1.355,2.609-1.503,2.782c-0.185,0.219-0.374,0.325-0.58,0.325c-0.047,0-0.087-0.007-0.12-0.019
				c-0.021-0.008-0.069-0.033-0.154-0.103c-0.225-0.185-0.479-0.21-0.638-0.108c-0.095,0.061-0.115,0.137-0.115,0.189
				c0,0.116,0.083,0.207,0.244,0.27c0.182,0.078,0.404,0.117,0.66,0.117c0.257,0,0.532-0.06,0.815-0.179
				c0.285-0.118,0.54-0.305,0.759-0.554c0.218-0.248,0.435-0.632,0.645-1.142l-0.001,0c0.047-0.068,0.078-0.182,0.09-0.238h0
				c0.292-0.71,0.671-1.533,0.859-1.771l0.157-0.199L11.873,16.713z"/>
			<g>
				<path fill="#FFFFFF" d="M1.21,24.01c0.319,0.269,2.542,1.888,4.042,2.971c0.043,0.038,4.061,3.495,9.732,3.37
					c2.673-0.06,5.656-0.487,9.357-3.185l0,0c0.078-0.053,3.207-2.255,4.274-3.168c-0.011-0.011-0.024-0.023-0.038-0.035
					c-0.746-0.7-1.396-1.548-1.932-2.519c-0.547,0.659-5.329,6.19-11.637,6.309c-0.071,0-0.143,0.001-0.214,0.001
					c-4.04,0-7.944-2.13-11.604-6.332C3.012,21.753,2.216,23.167,1.21,24.01z"/>
			</g>
			<g>
				<path fill="#0E1A36" d="M3.707,25.104l0.987-1.175l0.264,0.222L3.97,25.326L3.707,25.104z"/>
				<path fill="#0E1A36" d="M5.211,26.288L4.95,26.091l0.342-0.453c0.072-0.096,0.113-0.162,0.123-0.199
					c0.01-0.036,0.009-0.072-0.005-0.106c-0.013-0.035-0.038-0.065-0.073-0.092c-0.045-0.033-0.094-0.053-0.147-0.058
					c-0.053-0.005-0.099,0.006-0.141,0.033c-0.041,0.027-0.099,0.09-0.173,0.189l-0.303,0.403l-0.261-0.197l0.669-0.888l0.242,0.183
					l-0.098,0.13c0.162-0.035,0.308-0.004,0.438,0.095c0.058,0.043,0.103,0.092,0.137,0.147c0.034,0.055,0.052,0.106,0.055,0.153
					c0.003,0.048-0.005,0.093-0.023,0.137c-0.018,0.044-0.053,0.101-0.105,0.17L5.211,26.288z"/>
				<path fill="#0E1A36" d="M6.673,25.936L6.543,26.13l-0.186-0.124l-0.25,0.371c-0.05,0.075-0.078,0.12-0.083,0.135
					c-0.004,0.015-0.003,0.031,0.004,0.047c0.007,0.017,0.02,0.031,0.038,0.043c0.025,0.017,0.067,0.034,0.124,0.05l-0.104,0.205
					c-0.08-0.018-0.16-0.054-0.239-0.108c-0.048-0.033-0.087-0.07-0.117-0.111c-0.029-0.041-0.045-0.079-0.048-0.115
					c-0.003-0.036,0.006-0.076,0.026-0.121c0.014-0.033,0.049-0.092,0.107-0.178l0.27-0.402l-0.124-0.084l0.131-0.194l0.124,0.084
					l0.123-0.183l0.368,0.04l-0.219,0.326L6.673,25.936z"/>
				<path fill="#0E1A36" d="M7.137,27.109l0.254,0.209c-0.091,0.071-0.19,0.108-0.296,0.109c-0.106,0.002-0.218-0.032-0.334-0.101
					c-0.184-0.11-0.288-0.246-0.312-0.407c-0.018-0.129,0.012-0.259,0.091-0.392c0.095-0.158,0.214-0.255,0.36-0.289
					c0.145-0.035,0.288-0.01,0.429,0.074c0.158,0.094,0.254,0.216,0.289,0.364c0.036,0.148-0.006,0.318-0.126,0.508l-0.703-0.419
					c-0.043,0.076-0.055,0.147-0.037,0.215c0.018,0.068,0.06,0.121,0.124,0.159c0.044,0.026,0.088,0.038,0.131,0.034
					C7.05,27.169,7.093,27.148,7.137,27.109z M7.306,26.863c0.041-0.074,0.054-0.142,0.036-0.204
					c-0.017-0.061-0.054-0.11-0.111-0.144c-0.061-0.036-0.124-0.047-0.188-0.03c-0.064,0.016-0.116,0.059-0.156,0.128L7.306,26.863z
					"/>
				<path fill="#0E1A36" d="M7.869,27.915l-0.29-0.15l0.512-0.987l0.27,0.14l-0.073,0.14c0.08-0.043,0.144-0.065,0.192-0.066
					C8.528,26.989,8.575,27,8.622,27.025c0.066,0.034,0.121,0.084,0.166,0.148L8.58,27.354C8.545,27.3,8.508,27.262,8.466,27.24
					c-0.04-0.021-0.08-0.029-0.119-0.023c-0.038,0.005-0.079,0.03-0.123,0.074c-0.043,0.044-0.109,0.15-0.196,0.318L7.869,27.915z"
					/>
				<path fill="#0E1A36" d="M9.552,28.694l-0.3-0.13l0.226-0.52c0.048-0.11,0.072-0.184,0.074-0.222
					c0.001-0.038-0.009-0.072-0.03-0.102c-0.021-0.03-0.052-0.055-0.092-0.072c-0.052-0.022-0.104-0.03-0.156-0.022
					c-0.053,0.007-0.095,0.029-0.129,0.065C9.111,27.725,9.07,27.8,9.019,27.914l-0.2,0.461l-0.3-0.131l0.443-1.019l0.278,0.121
					l-0.065,0.149c0.149-0.072,0.298-0.076,0.448-0.01c0.066,0.029,0.122,0.066,0.167,0.111c0.045,0.046,0.075,0.091,0.088,0.136
					c0.013,0.046,0.016,0.092,0.01,0.139c-0.008,0.047-0.029,0.109-0.062,0.188L9.552,28.694z"/>
				<path fill="#0E1A36" d="M10.451,28.199l-0.266-0.14c0.066-0.091,0.145-0.149,0.239-0.172c0.094-0.024,0.216-0.01,0.369,0.041
					c0.138,0.047,0.236,0.095,0.294,0.147c0.058,0.052,0.093,0.105,0.106,0.16c0.012,0.055-0.002,0.142-0.042,0.264l-0.112,0.324
					c-0.031,0.092-0.049,0.163-0.054,0.21c-0.005,0.047-0.002,0.1,0.009,0.16l-0.307-0.102c-0.002-0.021-0.003-0.052-0.002-0.092
					c0-0.018,0-0.03,0-0.036c-0.068,0.029-0.137,0.045-0.204,0.047c-0.068,0.003-0.136-0.007-0.205-0.029
					c-0.121-0.04-0.206-0.102-0.256-0.184c-0.049-0.082-0.06-0.168-0.029-0.258c0.02-0.059,0.054-0.108,0.101-0.144
					c0.047-0.036,0.103-0.057,0.168-0.062c0.066-0.006,0.155,0,0.269,0.017c0.153,0.024,0.261,0.035,0.324,0.032l0.01-0.028
					c0.018-0.053,0.016-0.097-0.006-0.129c-0.022-0.033-0.073-0.063-0.155-0.09c-0.055-0.018-0.101-0.023-0.139-0.014
					C10.523,28.13,10.486,28.156,10.451,28.199z M10.79,28.564c-0.043-0.002-0.111-0.008-0.203-0.02
					c-0.091-0.012-0.153-0.014-0.185-0.008c-0.049,0.013-0.08,0.038-0.094,0.078c-0.013,0.039-0.008,0.078,0.015,0.118
					c0.023,0.039,0.06,0.067,0.109,0.084c0.056,0.019,0.115,0.02,0.177,0.004c0.046-0.013,0.081-0.035,0.105-0.068
					c0.016-0.021,0.035-0.065,0.058-0.132L10.79,28.564z"/>
				<path fill="#0E1A36" d="M12.173,28.346l-0.057,0.227l-0.216-0.054l-0.11,0.434c-0.022,0.088-0.032,0.14-0.032,0.155
					c0.001,0.016,0.007,0.03,0.02,0.044c0.012,0.013,0.029,0.022,0.05,0.028c0.029,0.007,0.074,0.009,0.134,0.004l-0.028,0.228
					c-0.081,0.01-0.168,0.003-0.261-0.021c-0.057-0.014-0.107-0.036-0.147-0.065c-0.042-0.028-0.07-0.059-0.085-0.092
					c-0.014-0.033-0.02-0.073-0.017-0.122c0.002-0.034,0.016-0.103,0.041-0.203l0.118-0.471l-0.146-0.036l0.057-0.227l0.146,0.036
					l0.054-0.214l0.36-0.087l-0.096,0.38L12.173,28.346z"/>
				<path fill="#0E1A36" d="M12.238,29.492l0.207-1.092l0.321,0.061l-0.207,1.092L12.238,29.492z M12.473,28.252l0.051-0.267
					l0.321,0.06l-0.051,0.268L12.473,28.252z"/>
				<path fill="#0E1A36" d="M12.989,29.06c0.01-0.098,0.046-0.189,0.108-0.275c0.062-0.085,0.144-0.147,0.247-0.185
					c0.103-0.039,0.214-0.051,0.334-0.039c0.186,0.018,0.333,0.088,0.441,0.208c0.107,0.121,0.154,0.264,0.137,0.429
					c-0.017,0.167-0.091,0.3-0.222,0.398c-0.131,0.098-0.287,0.138-0.469,0.12c-0.113-0.011-0.218-0.045-0.315-0.101
					c-0.098-0.056-0.169-0.131-0.213-0.225C12.992,29.297,12.976,29.186,12.989,29.06z M13.321,29.108
					c-0.011,0.11,0.01,0.196,0.062,0.261c0.052,0.064,0.12,0.1,0.205,0.108c0.085,0.008,0.159-0.014,0.222-0.066
					c0.063-0.053,0.1-0.135,0.111-0.245c0.011-0.108-0.01-0.195-0.062-0.258c-0.051-0.065-0.12-0.101-0.204-0.109
					c-0.085-0.009-0.159,0.014-0.223,0.066C13.369,28.918,13.332,28.999,13.321,29.108z"/>
				<path fill="#0E1A36" d="M15.7,29.734l-0.326,0.009l-0.015-0.568c-0.003-0.12-0.012-0.197-0.027-0.232
					c-0.015-0.035-0.038-0.062-0.07-0.08c-0.032-0.019-0.07-0.027-0.114-0.026c-0.057,0.001-0.107,0.017-0.152,0.046
					c-0.044,0.029-0.074,0.067-0.089,0.114c-0.016,0.046-0.022,0.131-0.018,0.255l0.013,0.504l-0.327,0.009l-0.029-1.111
					l0.304-0.008l0.004,0.163c0.104-0.129,0.238-0.195,0.402-0.199c0.072-0.002,0.138,0.008,0.198,0.03
					c0.06,0.022,0.106,0.05,0.138,0.086c0.031,0.035,0.054,0.076,0.067,0.121c0.013,0.046,0.021,0.111,0.023,0.197L15.7,29.734z"/>
				<path fill="#0E1A36" d="M16.28,28.891l-0.3-0.005c0.018-0.111,0.063-0.198,0.136-0.26c0.073-0.063,0.189-0.106,0.348-0.129
					c0.144-0.021,0.254-0.021,0.329,0c0.075,0.02,0.13,0.052,0.166,0.095c0.035,0.043,0.062,0.128,0.08,0.254l0.045,0.34
					c0.014,0.097,0.029,0.167,0.047,0.211c0.017,0.045,0.043,0.091,0.079,0.14l-0.32,0.046c-0.011-0.018-0.026-0.046-0.044-0.081
					c-0.008-0.017-0.013-0.028-0.016-0.033c-0.048,0.056-0.101,0.101-0.161,0.134c-0.059,0.033-0.125,0.055-0.196,0.065
					c-0.126,0.018-0.23,0.001-0.311-0.049c-0.081-0.051-0.129-0.123-0.141-0.217c-0.009-0.062-0.001-0.12,0.025-0.173
					c0.026-0.053,0.067-0.097,0.123-0.132c0.056-0.034,0.139-0.069,0.248-0.105c0.147-0.047,0.249-0.086,0.304-0.117l-0.004-0.029
					c-0.008-0.056-0.029-0.093-0.064-0.113c-0.034-0.019-0.093-0.023-0.179-0.011c-0.057,0.009-0.101,0.025-0.13,0.05
					C16.314,28.798,16.293,28.837,16.28,28.891z M16.747,29.065c-0.04,0.019-0.103,0.043-0.191,0.073
					c-0.087,0.03-0.143,0.056-0.169,0.076c-0.039,0.033-0.054,0.071-0.049,0.111c0.006,0.041,0.028,0.074,0.066,0.098
					c0.038,0.025,0.083,0.033,0.135,0.026c0.058-0.008,0.111-0.034,0.159-0.076c0.036-0.032,0.056-0.067,0.063-0.108
					c0.005-0.026,0.003-0.074-0.008-0.143L16.747,29.065z"/>
				<path fill="#0E1A36" d="M17.571,29.454l-0.338-1.496l0.319-0.072l0.338,1.497L17.571,29.454z"/>
				<path fill="#0E1A36" d="M18.831,28.619l0.305-0.142c0.054,0.088,0.117,0.144,0.192,0.167c0.074,0.023,0.16,0.017,0.258-0.018
					c0.104-0.038,0.176-0.086,0.214-0.146c0.038-0.059,0.048-0.114,0.028-0.167c-0.013-0.035-0.034-0.059-0.065-0.075
					c-0.031-0.016-0.078-0.023-0.139-0.02c-0.042,0.002-0.136,0.012-0.282,0.031c-0.187,0.025-0.326,0.021-0.416-0.01
					c-0.128-0.043-0.212-0.122-0.253-0.236c-0.027-0.073-0.029-0.151-0.006-0.232c0.023-0.081,0.072-0.153,0.146-0.219
					c0.075-0.066,0.174-0.121,0.297-0.165c0.201-0.074,0.366-0.089,0.497-0.047c0.13,0.043,0.222,0.128,0.276,0.259l-0.319,0.131
					c-0.041-0.069-0.089-0.111-0.147-0.127c-0.057-0.015-0.131-0.007-0.222,0.026c-0.094,0.034-0.162,0.079-0.202,0.133
					c-0.026,0.035-0.033,0.071-0.019,0.108c0.012,0.034,0.039,0.057,0.08,0.07c0.052,0.016,0.163,0.012,0.332-0.012
					c0.17-0.024,0.299-0.032,0.387-0.024c0.089,0.009,0.165,0.036,0.231,0.082c0.065,0.046,0.114,0.115,0.147,0.206
					c0.03,0.082,0.033,0.169,0.008,0.26c-0.024,0.091-0.077,0.171-0.158,0.239c-0.081,0.069-0.19,0.13-0.329,0.18
					c-0.203,0.074-0.374,0.088-0.513,0.043C19.021,28.872,18.911,28.772,18.831,28.619z"/>
				<path fill="#0E1A36" d="M21.323,27.284l-0.27,0.183c-0.034-0.048-0.075-0.077-0.122-0.087c-0.047-0.01-0.099-0.003-0.154,0.023
					c-0.074,0.035-0.122,0.085-0.145,0.151c-0.022,0.066-0.008,0.154,0.041,0.261c0.056,0.12,0.118,0.193,0.185,0.222
					c0.068,0.029,0.139,0.026,0.215-0.01c0.056-0.026,0.095-0.062,0.118-0.108c0.023-0.046,0.025-0.107,0.006-0.184l0.312-0.091
					c0.026,0.134,0.01,0.252-0.047,0.354c-0.057,0.101-0.157,0.185-0.301,0.253c-0.164,0.076-0.316,0.09-0.456,0.043
					c-0.141-0.048-0.25-0.154-0.326-0.318c-0.078-0.166-0.089-0.318-0.035-0.457c0.054-0.138,0.165-0.246,0.331-0.324
					c0.136-0.064,0.257-0.088,0.362-0.072C21.141,27.139,21.236,27.192,21.323,27.284z"/>
				<path fill="#0E1A36" d="M21.513,26.326l0.276,0.493c0.038-0.149,0.121-0.259,0.248-0.331c0.066-0.036,0.131-0.058,0.196-0.066
					c0.065-0.008,0.12-0.001,0.167,0.017c0.046,0.019,0.085,0.047,0.118,0.082c0.033,0.036,0.074,0.098,0.123,0.185l0.319,0.568
					l-0.285,0.16l-0.287-0.512c-0.057-0.102-0.098-0.163-0.125-0.184c-0.026-0.022-0.057-0.033-0.094-0.034
					c-0.036-0.001-0.075,0.01-0.116,0.034c-0.047,0.026-0.084,0.06-0.11,0.102c-0.025,0.041-0.035,0.088-0.029,0.139
					c0.006,0.052,0.032,0.118,0.078,0.199l0.272,0.486l-0.285,0.16l-0.75-1.338L21.513,26.326z"/>
				<path fill="#0E1A36" d="M22.966,26.604c-0.054-0.082-0.083-0.175-0.089-0.281c-0.006-0.105,0.019-0.206,0.075-0.299
					c0.056-0.094,0.134-0.174,0.235-0.241c0.156-0.102,0.314-0.141,0.474-0.116c0.16,0.026,0.285,0.108,0.377,0.248
					c0.093,0.141,0.119,0.291,0.079,0.448c-0.04,0.159-0.136,0.288-0.289,0.389c-0.095,0.062-0.198,0.102-0.309,0.121
					c-0.111,0.018-0.213,0.004-0.307-0.04C23.117,26.787,23.036,26.711,22.966,26.604z M23.254,26.433
					c0.06,0.092,0.131,0.147,0.212,0.164c0.081,0.018,0.157,0.003,0.229-0.044c0.071-0.047,0.114-0.111,0.131-0.192
					c0.016-0.081-0.007-0.167-0.068-0.26c-0.06-0.092-0.13-0.145-0.21-0.163c-0.081-0.017-0.157-0.002-0.228,0.045
					c-0.072,0.047-0.115,0.111-0.131,0.191C23.171,26.254,23.193,26.341,23.254,26.433z"/>
				<path fill="#0E1A36" d="M24.244,25.751c-0.059-0.077-0.095-0.169-0.108-0.274c-0.012-0.105,0.006-0.207,0.055-0.304
					c0.049-0.098,0.122-0.183,0.218-0.257c0.149-0.112,0.304-0.162,0.465-0.147c0.161,0.015,0.292,0.089,0.393,0.222
					c0.101,0.134,0.138,0.281,0.109,0.442c-0.03,0.161-0.117,0.297-0.263,0.408c-0.09,0.069-0.19,0.115-0.299,0.141
					c-0.109,0.026-0.213,0.019-0.309-0.019C24.409,25.924,24.322,25.853,24.244,25.751z M24.521,25.561
					c0.067,0.088,0.14,0.138,0.222,0.149c0.082,0.012,0.157-0.009,0.224-0.06c0.068-0.052,0.107-0.118,0.118-0.2
					c0.01-0.082-0.019-0.166-0.085-0.255c-0.067-0.086-0.139-0.136-0.221-0.148c-0.082-0.012-0.156,0.009-0.224,0.06
					c-0.068,0.052-0.107,0.118-0.119,0.2C24.426,25.389,24.454,25.474,24.521,25.561z"/>
				<path fill="#0E1A36" d="M25.889,25.193l-0.993-1.171l0.249-0.211l0.992,1.17L25.889,25.193z"/>
			</g>
		</g>
		<g>
			<path fill="#FFFFFF" d="M24.406,27.254c-0.029,0.021-0.057,0.041-0.087,0.062l-0.005,1.662c0.516-0.462,3.082-2.77,4.016-3.96
				c0.44-0.56,0.438-0.784,0.397-0.867c-0.012-0.024-0.031-0.043-0.054-0.059c-0.824,0.697-3.892,2.943-4.269,3.159L24.406,27.254z"
				/>
			<path fill="#FFFFFF" d="M1.15,24.093c-0.015,0.013-0.029,0.028-0.038,0.047c-0.041,0.084-0.043,0.307,0.397,0.867
				c0.933,1.19,3.5,3.498,4.016,3.959l-0.004-1.632c-0.213-0.162-0.331-0.262-0.337-0.268C2.156,24.88,1.36,24.276,1.15,24.093z"/>
		</g>
	</g>
	<g>
		<path fill="#0E1A36" d="M9.184,3.347c0.075,0.107,0.111,0.161,0.187,0.268c0.05-0.028,0.078-0.043,0.131-0.069
			C9.598,3.495,9.66,3.457,9.687,3.43c0.026-0.027,0.041-0.054,0.047-0.085c0.005-0.03-0.002-0.061-0.02-0.09
			C9.692,3.22,9.662,3.199,9.619,3.188c-0.04-0.009-0.084-0.006-0.128,0.007C9.458,3.206,9.397,3.237,9.305,3.283
			C9.256,3.307,9.233,3.321,9.184,3.347 M9.492,4.256C9.224,3.885,9.089,3.698,8.819,3.325c0.163-0.089,0.245-0.134,0.409-0.219
			c0.156-0.08,0.262-0.123,0.315-0.139c0.083-0.021,0.165-0.019,0.243,0.008C9.864,3,9.927,3.052,9.976,3.129
			c0.035,0.059,0.052,0.117,0.048,0.17C10.02,3.353,10.005,3.4,9.976,3.445C9.95,3.487,9.917,3.525,9.88,3.551
			c-0.051,0.038-0.132,0.084-0.244,0.14C9.573,3.724,9.541,3.741,9.478,3.774c0.1,0.143,0.148,0.214,0.246,0.356
			C9.631,4.18,9.584,4.205,9.492,4.256"/>
		<path fill="#0E1A36" d="M10.64,3.687c-0.221-0.395-0.334-0.593-0.561-0.988c0.102-0.044,0.153-0.065,0.253-0.108
			c0.214,0.399,0.322,0.598,0.536,0.997C10.777,3.626,10.732,3.646,10.64,3.687"/>
		<path fill="#0E1A36" d="M11.529,2.808c-0.028-0.057-0.066-0.094-0.113-0.112c-0.049-0.018-0.1-0.018-0.15,0.001
			c-0.054,0.018-0.091,0.053-0.11,0.096c-0.021,0.044-0.016,0.091,0.009,0.145C11.309,2.885,11.382,2.858,11.529,2.808
			 M11.604,3.012c0.102-0.021,0.152-0.029,0.254-0.046c-0.002,0.082-0.026,0.152-0.075,0.213c-0.048,0.06-0.121,0.106-0.218,0.142
			c-0.155,0.053-0.287,0.054-0.403,0c-0.091-0.044-0.163-0.114-0.215-0.216c-0.06-0.121-0.071-0.232-0.024-0.332
			c0.046-0.101,0.134-0.173,0.258-0.219c0.141-0.05,0.271-0.052,0.384-0.006c0.113,0.046,0.198,0.148,0.258,0.301
			c-0.245,0.079-0.366,0.121-0.606,0.211c0.03,0.056,0.072,0.094,0.122,0.113c0.053,0.017,0.107,0.017,0.161,0
			c0.038-0.015,0.064-0.034,0.082-0.059C11.6,3.086,11.607,3.053,11.604,3.012"/>
		<path fill="#0E1A36" d="M12.277,2.607c0.026,0.083,0.058,0.139,0.096,0.17c0.054,0.043,0.118,0.056,0.187,0.041
			c0.057-0.012,0.099-0.043,0.127-0.094c0.03-0.047,0.032-0.113,0.013-0.192c-0.025-0.09-0.062-0.15-0.112-0.181
			c-0.049-0.032-0.107-0.039-0.169-0.024c-0.06,0.012-0.105,0.046-0.134,0.092C12.256,2.467,12.252,2.53,12.277,2.607 M13.044,2.866
			c-0.09,0.017-0.135,0.026-0.225,0.046c-0.013-0.046-0.017-0.069-0.031-0.113c-0.026,0.052-0.062,0.094-0.107,0.128
			c-0.045,0.032-0.093,0.055-0.145,0.066c-0.104,0.027-0.205,0.013-0.302-0.039c-0.098-0.052-0.169-0.141-0.21-0.268
			c-0.043-0.129-0.038-0.239,0.018-0.327c0.054-0.087,0.142-0.144,0.261-0.172c0.109-0.026,0.214-0.01,0.313,0.044
			c-0.041-0.154-0.062-0.231-0.103-0.386c0.108-0.023,0.161-0.035,0.268-0.056C12.888,2.221,12.94,2.436,13.044,2.866"/>
		<path fill="#0E1A36" d="M13.449,2.358c0.018,0.083,0.052,0.141,0.099,0.172c0.047,0.03,0.099,0.041,0.155,0.031
			c0.062-0.01,0.108-0.037,0.142-0.085c0.035-0.046,0.046-0.11,0.031-0.188c-0.015-0.081-0.046-0.138-0.096-0.17
			c-0.048-0.033-0.105-0.045-0.169-0.033c-0.063,0.01-0.109,0.039-0.14,0.085C13.439,2.215,13.432,2.278,13.449,2.358 M13.335,2.86
			c0.115-0.011,0.17-0.015,0.283-0.026c0.012,0.027,0.025,0.044,0.044,0.05c0.025,0.011,0.063,0.011,0.114,0.002
			c0.063-0.01,0.107-0.026,0.138-0.047c0.018-0.015,0.031-0.034,0.038-0.061c0.004-0.019,0.002-0.052-0.007-0.097
			c-0.008-0.048-0.012-0.069-0.019-0.115c-0.059,0.096-0.142,0.154-0.255,0.174c-0.123,0.022-0.232-0.002-0.324-0.077
			c-0.077-0.058-0.127-0.138-0.152-0.243c-0.034-0.13-0.019-0.238,0.043-0.323c0.064-0.083,0.156-0.138,0.274-0.16
			c0.121-0.021,0.234,0.005,0.327,0.076c-0.007-0.042-0.011-0.066-0.021-0.11c0.099-0.015,0.149-0.022,0.246-0.036
			c0.047,0.284,0.07,0.426,0.115,0.709c0.016,0.094,0.018,0.164,0.008,0.213c-0.011,0.048-0.029,0.088-0.056,0.119
			c-0.028,0.029-0.067,0.058-0.117,0.082c-0.05,0.024-0.114,0.042-0.197,0.057c-0.151,0.026-0.263,0.023-0.339-0.01
			c-0.075-0.032-0.12-0.082-0.138-0.154C13.338,2.878,13.337,2.868,13.335,2.86"/>
		<path fill="#0E1A36" d="M15.026,2.125c-0.004-0.061-0.024-0.109-0.062-0.138c-0.036-0.033-0.082-0.049-0.136-0.048
			c-0.056,0.003-0.105,0.02-0.141,0.057c-0.033,0.033-0.052,0.079-0.048,0.137C14.793,2.127,14.872,2.127,15.026,2.125
			 M15.015,2.338c0.102,0.013,0.152,0.02,0.252,0.036c-0.032,0.075-0.084,0.134-0.152,0.175c-0.069,0.041-0.154,0.062-0.257,0.064
			c-0.164,0.003-0.285-0.036-0.37-0.124c-0.066-0.069-0.103-0.16-0.112-0.271c-0.007-0.133,0.028-0.239,0.109-0.317
			c0.083-0.079,0.191-0.121,0.324-0.123c0.149-0.004,0.268,0.036,0.355,0.113c0.088,0.077,0.124,0.199,0.118,0.362
			c-0.258-0.003-0.385-0.003-0.639,0.007c0.004,0.062,0.025,0.111,0.067,0.144c0.039,0.034,0.088,0.049,0.146,0.049
			c0.039-0.002,0.072-0.012,0.099-0.03C14.982,2.409,15.001,2.378,15.015,2.338"/>
		<path fill="#0E1A36" d="M15.716,2.535c0.029-0.439,0.045-0.659,0.076-1.098c0.094,0.008,0.14,0.011,0.234,0.021
			c-0.015,0.175-0.024,0.259-0.038,0.432c0.175,0.02,0.262,0.031,0.436,0.056c0.022-0.172,0.032-0.258,0.054-0.432
			c0.093,0.015,0.139,0.022,0.232,0.037c-0.065,0.438-0.096,0.655-0.159,1.09c-0.085-0.014-0.128-0.022-0.211-0.033
			c0.024-0.191,0.036-0.287,0.059-0.477c-0.171-0.027-0.258-0.036-0.431-0.054c-0.018,0.191-0.025,0.286-0.041,0.478
			C15.843,2.547,15.802,2.542,15.716,2.535"/>
		<path fill="#0E1A36" d="M17.317,2.412c-0.029,0.003-0.072,0.004-0.13,0.003c-0.06-0.002-0.1,0.003-0.118,0.01
			C17.039,2.437,17.02,2.46,17.015,2.49c-0.005,0.028,0,0.055,0.018,0.08c0.018,0.027,0.041,0.043,0.072,0.05
			c0.038,0.01,0.073,0.005,0.111-0.011c0.028-0.014,0.049-0.033,0.063-0.056c0.009-0.017,0.018-0.049,0.028-0.098
			C17.311,2.437,17.313,2.429,17.317,2.412 M17.072,2.18c-0.073-0.03-0.11-0.043-0.182-0.073c0.034-0.072,0.08-0.121,0.14-0.149
			c0.062-0.025,0.142-0.026,0.247-0.001c0.095,0.023,0.162,0.05,0.204,0.083c0.042,0.034,0.068,0.069,0.079,0.109
			c0.012,0.038,0.007,0.102-0.015,0.193c-0.022,0.095-0.033,0.142-0.057,0.238c-0.015,0.067-0.024,0.119-0.025,0.153
			c-0.001,0.035,0.002,0.072,0.012,0.114c-0.078-0.021-0.117-0.031-0.194-0.05c-0.002-0.014-0.004-0.038-0.007-0.067
			c0-0.012-0.002-0.025-0.002-0.025c-0.006-0.004-0.082,0.043-0.124,0.05c-0.042,0.009-0.084,0.007-0.129-0.003
			c-0.075-0.016-0.134-0.05-0.171-0.104c-0.037-0.054-0.051-0.113-0.038-0.18c0.007-0.043,0.024-0.081,0.051-0.113
			c0.026-0.029,0.059-0.051,0.1-0.061c0.041-0.011,0.1-0.016,0.173-0.012c0.101,0.002,0.171,0.002,0.21-0.004
			c0.003-0.01,0.003-0.013,0.005-0.022c0.008-0.041,0.005-0.07-0.012-0.095c-0.015-0.02-0.051-0.037-0.107-0.05
			c-0.037-0.008-0.067-0.007-0.093,0.003C17.115,2.124,17.092,2.147,17.072,2.18"/>
		<path fill="#0E1A36" d="M17.87,2.963c-0.078-0.026-0.118-0.038-0.196-0.061c0.078-0.309,0.118-0.462,0.193-0.772
			c0.078,0.023,0.117,0.036,0.195,0.061c-0.011,0.042-0.017,0.064-0.028,0.108c0.047-0.041,0.086-0.065,0.116-0.072
			c0.031-0.008,0.065-0.005,0.099,0.006c0.047,0.017,0.09,0.044,0.125,0.086c-0.046,0.061-0.069,0.09-0.117,0.153
			c-0.028-0.035-0.056-0.055-0.085-0.066c-0.031-0.01-0.055-0.01-0.082,0c-0.023,0.009-0.047,0.031-0.07,0.068
			c-0.022,0.039-0.051,0.122-0.087,0.252C17.908,2.82,17.895,2.868,17.87,2.963"/>
		<path fill="#0E1A36" d="M18.602,2.785c-0.025,0.078-0.033,0.141-0.022,0.189c0.017,0.066,0.053,0.11,0.108,0.133
			c0.044,0.017,0.085,0.016,0.13-0.01c0.044-0.023,0.082-0.076,0.11-0.154c0.032-0.086,0.039-0.154,0.021-0.206
			c-0.019-0.052-0.052-0.089-0.103-0.108c-0.047-0.021-0.095-0.017-0.14,0.006C18.662,2.661,18.628,2.71,18.602,2.785 M18.282,3.105
			c0.13-0.418,0.196-0.626,0.327-1.044c0.085,0.032,0.128,0.049,0.214,0.082c-0.051,0.148-0.076,0.223-0.125,0.372
			c0.086-0.045,0.173-0.048,0.259-0.013c0.095,0.041,0.16,0.107,0.197,0.2c0.036,0.094,0.028,0.198-0.019,0.321
			c-0.05,0.125-0.116,0.209-0.203,0.25c-0.085,0.042-0.167,0.045-0.25,0.01c-0.044-0.016-0.08-0.045-0.113-0.083
			c-0.033-0.038-0.056-0.083-0.071-0.136c-0.016,0.043-0.022,0.066-0.038,0.109C18.389,3.145,18.352,3.131,18.282,3.105"/>
		<path fill="#0E1A36" d="M19.499,3.206c-0.031,0.072-0.038,0.135-0.021,0.191c0.016,0.056,0.049,0.096,0.098,0.123
			c0.048,0.026,0.098,0.028,0.148,0.01c0.053-0.02,0.093-0.065,0.126-0.137c0.034-0.069,0.044-0.132,0.027-0.188
			c-0.016-0.059-0.051-0.099-0.1-0.126c-0.052-0.027-0.104-0.03-0.155-0.01C19.57,3.09,19.53,3.135,19.499,3.206 M19.303,3.1
			c0.028-0.067,0.069-0.121,0.125-0.164c0.058-0.044,0.124-0.068,0.196-0.069c0.075-0.002,0.148,0.019,0.221,0.056
			c0.114,0.061,0.19,0.149,0.226,0.259c0.037,0.109,0.027,0.216-0.024,0.323c-0.055,0.106-0.132,0.174-0.234,0.205
			c-0.103,0.032-0.204,0.02-0.307-0.034c-0.063-0.035-0.119-0.08-0.165-0.141c-0.045-0.06-0.072-0.125-0.078-0.198
			C19.257,3.261,19.269,3.182,19.303,3.1"/>
		<path fill="#0E1A36" d="M20.241,4.084c-0.072-0.046-0.11-0.069-0.182-0.113c0.146-0.279,0.219-0.417,0.363-0.696
			c0.073,0.044,0.109,0.065,0.18,0.112c-0.023,0.039-0.033,0.059-0.056,0.098c0.056-0.026,0.102-0.039,0.133-0.036
			c0.033,0.002,0.064,0.013,0.095,0.033c0.045,0.029,0.079,0.069,0.106,0.119c-0.058,0.046-0.089,0.071-0.149,0.116
			c-0.019-0.04-0.044-0.07-0.069-0.088c-0.026-0.018-0.052-0.026-0.08-0.023c-0.025,0.002-0.055,0.018-0.087,0.048
			c-0.028,0.031-0.077,0.103-0.142,0.22C20.31,3.958,20.287,3.999,20.241,4.084"/>
	</g>
</g>
</svg>
