<?xml version="1.0" encoding="utf-8"?>
<!-- Generator: Adobe Illustrator 17.0.0, SVG Export Plug-In . SVG Version: 6.00 Build 0)  -->
<!DOCTYPE svg PUBLIC "-//W3C//DTD SVG 1.1//EN" "http://www.w3.org/Graphics/SVG/1.1/DTD/svg11.dtd">
<svg version="1.1" id="Layer_1" xmlns="http://www.w3.org/2000/svg" xmlns:xlink="http://www.w3.org/1999/xlink" x="0px" y="0px"
	 width="263px" height="52px" viewBox="0 0 263 52" enable-background="new 0 0 263 52" xml:space="preserve">
<g>
	<g>
		<g>
			<path fill="#0E1A36" d="M25.204,24.039H11.808l-0.046-0.078c-0.03-0.052-3.02-5.27-1.652-10.181l0.043-0.154l0.154,0.044
				c0.003,0.001,0.309,0.088,0.816,0.088c1.051,0,3.131-0.378,5.259-2.909l0.141-0.168l1.5,2.449h7.18V24.039z M11.992,23.723
				h12.896V13.447h-7.042l-1.365-2.228c-2.162,2.479-4.277,2.855-5.359,2.855c-0.339,0-0.596-0.036-0.747-0.064
				C9.225,18.426,11.632,23.067,11.992,23.723z"/>
		</g>
		<g>
			<path fill="#0E1A36" d="M25.204,45.494l-11.15-8.979H7.457l0.378-0.284c5.768-4.336,4.138-11.747,4.12-11.821l-0.045-0.194
				h13.293V45.494z M8.388,36.199h5.778l0.043,0.035l10.679,8.6V24.532H12.301C12.514,25.722,13.383,32.119,8.388,36.199z"/>
		</g>
		<g>
			<path fill="#0E1A36" d="M25.466,45.494V24.216H38.47l-0.036,0.188c-0.014,0.075-1.363,7.492,4.404,11.827l0.378,0.284h-6.601
				L25.466,45.494z M25.782,24.532v20.302l10.721-8.635h5.782c-5.012-4.084-4.36-10.492-4.191-11.667H25.782z"/>
		</g>
		<g>
			<path fill="#0E1A36" d="M38.552,24.039H25.46V13.131h6.871l1.503-2.449l0.141,0.168c2.127,2.531,4.208,2.909,5.26,2.909
				c0.508,0,0.814-0.086,0.817-0.088l0.153-0.044l0.043,0.153c1.366,4.911-1.62,10.128-1.651,10.181L38.552,24.039z M25.775,23.723
				h12.592c0.359-0.657,2.762-5.3,1.615-9.713c-0.152,0.028-0.409,0.064-0.748,0.064c-1.082,0-3.199-0.376-5.36-2.855l-1.367,2.228
				h-6.733V23.723z"/>
		</g>
		<g>
			<path fill="#0E1A36" d="M5.506,13.086c0,0,1.52-2.88,4.2-2.455c0.138-0.001-2.535-4.702-3.114-5.05
				c0.006,0.067-4.345,0.858-5.239,4.62C1.32,10.203,4.57,11.879,5.506,13.086"/>
			<path fill="#0E1A36" d="M8.611,7.759c0,0,0.895,1.453,1.358,2.616c0.062,0.155,0.196,0.482,0.258,0.763
				c0.064,0.291,0.133,0.845,0.028,1.908c0.037,0.041,2.754,1.249,5.589-2.447c0.064,0.032-1.624-3.816-2.607-5.383
				C13.236,5.197,11.633,8.491,8.611,7.759"/>
			<path fill="#0E1A36" d="M44.851,13.086c0,0-1.52-2.88-4.203-2.455c-0.132-0.001,2.539-4.702,3.114-5.05
				c-0.002,0.067,4.348,0.858,5.242,4.62C49.036,10.203,45.787,11.879,44.851,13.086"/>
			<path fill="#0E1A36" d="M41.747,7.576c0,0-1.005,1.63-1.44,2.819c-0.031,0.083-0.092,0.28-0.125,0.384
				c-0.081,0.254-0.226,0.908-0.083,2.389c-0.037,0.041-2.748,0.943-5.588-2.753c-0.063,0.032,1.625-3.816,2.611-5.382
				C37.122,5.013,38.725,8.308,41.747,7.576"/>
			<path fill="#0E1A36" d="M16.203,9.872c0,0,8.412-6.283,18.007-0.071c0.059,0,2.629-5.546,2.629-5.546S25.481-3.624,13.629,4.66
				C13.629,4.734,15.42,7.594,16.203,9.872"/>
			<g>
				<path fill="#FFFFFF" d="M15.844,5.789c0.125,0.176,0.184,0.265,0.31,0.443c0.084-0.045,0.129-0.07,0.216-0.114
					c0.16-0.082,0.262-0.147,0.307-0.191c0.043-0.044,0.068-0.089,0.078-0.14c0.008-0.05-0.003-0.101-0.033-0.149
					c-0.038-0.057-0.087-0.093-0.157-0.11c-0.066-0.015-0.138-0.01-0.212,0.012c-0.055,0.018-0.155,0.067-0.308,0.145
					C15.964,5.724,15.926,5.747,15.844,5.789 M16.353,7.293c-0.443-0.614-0.667-0.923-1.113-1.54
					c0.269-0.147,0.404-0.221,0.676-0.362c0.258-0.133,0.433-0.204,0.522-0.23c0.137-0.035,0.272-0.031,0.401,0.012
					c0.13,0.043,0.234,0.129,0.314,0.256c0.059,0.099,0.085,0.194,0.08,0.281c-0.006,0.089-0.031,0.168-0.078,0.241
					c-0.044,0.071-0.099,0.133-0.161,0.177C16.91,6.191,16.776,6.268,16.59,6.36c-0.103,0.053-0.155,0.081-0.261,0.136
					c0.165,0.237,0.245,0.354,0.407,0.589C16.583,7.167,16.506,7.21,16.353,7.293"/>
				<path fill="#FFFFFF" d="M18.252,6.352c-0.366-0.653-0.553-0.981-0.927-1.633c0.168-0.074,0.252-0.108,0.419-0.179
					c0.355,0.66,0.532,0.989,0.886,1.65C18.478,6.252,18.404,6.284,18.252,6.352"/>
				<path fill="#FFFFFF" d="M19.722,4.899c-0.045-0.094-0.108-0.155-0.187-0.185c-0.082-0.03-0.165-0.03-0.248,0.002
					c-0.089,0.03-0.151,0.087-0.182,0.159c-0.035,0.073-0.027,0.152,0.015,0.241C19.359,5.026,19.48,4.982,19.722,4.899
					 M19.846,5.236c0.168-0.036,0.252-0.049,0.419-0.077c-0.003,0.136-0.042,0.252-0.124,0.352c-0.08,0.099-0.2,0.176-0.36,0.234
					c-0.256,0.088-0.474,0.091-0.667,0c-0.151-0.072-0.27-0.188-0.356-0.357c-0.099-0.201-0.118-0.384-0.039-0.548
					c0.076-0.167,0.222-0.287,0.427-0.362c0.234-0.083,0.448-0.086,0.635-0.01c0.187,0.077,0.328,0.245,0.427,0.498
					c-0.404,0.131-0.604,0.199-1.002,0.349c0.049,0.093,0.119,0.154,0.202,0.186c0.087,0.03,0.176,0.03,0.265,0
					c0.062-0.024,0.106-0.056,0.137-0.098C19.84,5.359,19.852,5.304,19.846,5.236"/>
				<path fill="#FFFFFF" d="M20.959,4.565c0.044,0.138,0.097,0.231,0.158,0.281c0.09,0.07,0.196,0.093,0.31,0.068
					c0.095-0.02,0.163-0.071,0.21-0.155c0.049-0.078,0.053-0.187,0.021-0.318c-0.041-0.148-0.102-0.247-0.186-0.299
					c-0.082-0.052-0.176-0.064-0.279-0.039c-0.1,0.02-0.173,0.075-0.221,0.152C20.925,4.333,20.919,4.438,20.959,4.565
					 M22.229,4.995c-0.148,0.029-0.223,0.044-0.371,0.076c-0.022-0.076-0.028-0.114-0.051-0.187
					c-0.044,0.086-0.102,0.155-0.176,0.212c-0.075,0.052-0.154,0.091-0.24,0.109c-0.172,0.044-0.339,0.021-0.499-0.065
					c-0.163-0.086-0.279-0.233-0.346-0.444c-0.071-0.214-0.063-0.394,0.03-0.541c0.09-0.144,0.235-0.237,0.432-0.284
					c0.18-0.043,0.353-0.017,0.517,0.073c-0.067-0.256-0.102-0.383-0.17-0.638c0.178-0.039,0.266-0.057,0.443-0.093
					C21.969,3.928,22.055,4.284,22.229,4.995"/>
				<path fill="#FFFFFF" d="M22.898,4.154c0.031,0.137,0.086,0.233,0.163,0.285c0.078,0.049,0.163,0.067,0.257,0.051
					c0.102-0.016,0.178-0.062,0.234-0.14c0.058-0.075,0.075-0.181,0.051-0.311c-0.024-0.133-0.077-0.227-0.159-0.28
					c-0.079-0.056-0.174-0.075-0.28-0.056c-0.103,0.017-0.18,0.064-0.231,0.14C22.881,3.917,22.87,4.023,22.898,4.154 M22.709,4.985
					c0.19-0.019,0.282-0.026,0.468-0.043c0.02,0.044,0.041,0.072,0.072,0.083c0.042,0.018,0.105,0.019,0.188,0.004
					c0.104-0.017,0.178-0.043,0.228-0.078c0.03-0.025,0.051-0.057,0.063-0.101c0.006-0.031,0.002-0.086-0.012-0.161
					c-0.014-0.079-0.02-0.114-0.032-0.189c-0.097,0.158-0.234,0.254-0.422,0.287c-0.204,0.036-0.383-0.003-0.535-0.128
					c-0.127-0.096-0.21-0.228-0.251-0.402c-0.055-0.215-0.032-0.394,0.072-0.535c0.105-0.136,0.257-0.227,0.454-0.264
					c0.201-0.035,0.386,0.009,0.54,0.126c-0.011-0.07-0.019-0.108-0.034-0.182c0.164-0.025,0.247-0.036,0.407-0.06
					c0.077,0.47,0.116,0.704,0.191,1.173c0.026,0.156,0.03,0.271,0.013,0.353c-0.019,0.08-0.048,0.146-0.093,0.197
					C23.977,5.114,23.913,5.161,23.83,5.2c-0.083,0.04-0.189,0.07-0.325,0.094c-0.249,0.043-0.435,0.038-0.56-0.017
					c-0.124-0.053-0.199-0.136-0.228-0.254C22.714,5.014,22.713,4.998,22.709,4.985"/>
				<path fill="#FFFFFF" d="M25.507,3.769c-0.007-0.101-0.04-0.18-0.103-0.229c-0.06-0.055-0.136-0.081-0.225-0.08
					c-0.093,0.006-0.175,0.034-0.233,0.094c-0.055,0.055-0.087,0.131-0.079,0.228C25.121,3.772,25.251,3.772,25.507,3.769
					 M25.487,4.121c0.169,0.021,0.251,0.034,0.416,0.061c-0.053,0.125-0.138,0.221-0.251,0.29c-0.115,0.067-0.255,0.103-0.425,0.105
					c-0.271,0.006-0.472-0.06-0.612-0.205c-0.11-0.115-0.171-0.265-0.186-0.448c-0.012-0.22,0.046-0.395,0.18-0.524
					c0.138-0.13,0.316-0.2,0.536-0.203c0.247-0.007,0.443,0.058,0.588,0.187c0.145,0.126,0.205,0.329,0.196,0.598
					c-0.426-0.006-0.637-0.004-1.057,0.012c0.006,0.104,0.042,0.183,0.112,0.239c0.064,0.056,0.146,0.082,0.242,0.082
					c0.065-0.004,0.119-0.02,0.163-0.051C25.433,4.239,25.465,4.187,25.487,4.121"/>
				<path fill="#FFFFFF" d="M26.648,4.447c0.048-0.726,0.075-1.091,0.125-1.816c0.156,0.012,0.231,0.018,0.387,0.035
					c-0.024,0.289-0.039,0.429-0.062,0.715c0.289,0.032,0.433,0.051,0.721,0.092c0.036-0.284,0.053-0.426,0.09-0.714
					c0.153,0.025,0.231,0.036,0.385,0.062c-0.107,0.724-0.159,1.083-0.262,1.802c-0.14-0.023-0.212-0.035-0.349-0.054
					c0.039-0.316,0.059-0.474,0.097-0.789c-0.283-0.045-0.426-0.06-0.712-0.089c-0.03,0.316-0.041,0.473-0.068,0.791
					C26.858,4.467,26.789,4.458,26.648,4.447"/>
				<path fill="#FFFFFF" d="M29.294,4.245c-0.047,0.004-0.119,0.007-0.216,0.004c-0.099-0.003-0.165,0.005-0.195,0.017
					c-0.049,0.02-0.08,0.057-0.088,0.107c-0.008,0.046,0,0.09,0.03,0.132c0.03,0.045,0.067,0.071,0.119,0.083
					c0.063,0.017,0.121,0.007,0.184-0.019c0.046-0.023,0.08-0.054,0.104-0.094c0.015-0.027,0.03-0.081,0.046-0.162
					C29.285,4.285,29.288,4.272,29.294,4.245 M28.89,3.861c-0.12-0.051-0.181-0.072-0.302-0.122C28.646,3.62,28.72,3.54,28.82,3.494
					c0.102-0.042,0.235-0.044,0.409-0.002c0.156,0.037,0.268,0.083,0.337,0.136c0.069,0.057,0.112,0.115,0.13,0.18
					c0.019,0.063,0.011,0.17-0.025,0.32c-0.036,0.156-0.055,0.234-0.094,0.392c-0.025,0.111-0.04,0.197-0.041,0.254
					c-0.001,0.058,0.003,0.118,0.02,0.189c-0.129-0.036-0.193-0.052-0.322-0.084c-0.002-0.023-0.007-0.062-0.012-0.11
					c0-0.02-0.003-0.041-0.003-0.041c-0.01-0.006-0.135,0.07-0.206,0.083c-0.07,0.015-0.138,0.012-0.214-0.004
					c-0.124-0.027-0.222-0.083-0.283-0.172c-0.062-0.089-0.084-0.187-0.063-0.298c0.012-0.07,0.039-0.133,0.085-0.186
					c0.044-0.049,0.098-0.085,0.165-0.101c0.068-0.018,0.165-0.026,0.285-0.02c0.167,0.004,0.283,0.004,0.347-0.006
					c0.005-0.015,0.005-0.021,0.009-0.035c0.013-0.068,0.008-0.117-0.02-0.157c-0.025-0.033-0.085-0.062-0.177-0.083
					C29.09,3.733,29.04,3.734,28.997,3.75C28.961,3.768,28.923,3.805,28.89,3.861"/>
				<path fill="#FFFFFF" d="M30.209,5.155c-0.13-0.043-0.195-0.061-0.325-0.099c0.128-0.511,0.195-0.765,0.32-1.276
					c0.13,0.039,0.194,0.059,0.323,0.1c-0.019,0.07-0.028,0.106-0.047,0.179c0.079-0.068,0.143-0.109,0.192-0.12
					c0.052-0.014,0.107-0.009,0.163,0.009c0.078,0.029,0.148,0.073,0.208,0.142c-0.076,0.101-0.115,0.15-0.193,0.253
					c-0.046-0.057-0.092-0.091-0.14-0.107c-0.051-0.017-0.091-0.017-0.134-0.001c-0.039,0.015-0.079,0.051-0.116,0.111
					c-0.036,0.066-0.084,0.202-0.143,0.418C30.272,4.918,30.252,4.998,30.209,5.155"/>
				<path fill="#FFFFFF" d="M31.421,4.861c-0.042,0.13-0.055,0.234-0.036,0.312c0.028,0.109,0.088,0.181,0.179,0.22
					c0.072,0.028,0.141,0.027,0.215-0.016c0.072-0.039,0.135-0.126,0.183-0.255c0.054-0.143,0.064-0.255,0.035-0.34
					c-0.032-0.086-0.087-0.146-0.17-0.178c-0.078-0.035-0.157-0.028-0.231,0.01C31.52,4.655,31.463,4.735,31.421,4.861 M30.891,5.39
					c0.215-0.692,0.323-1.036,0.54-1.727c0.141,0.052,0.212,0.08,0.354,0.134c-0.085,0.246-0.125,0.368-0.207,0.616
					c0.142-0.074,0.286-0.079,0.429-0.022c0.157,0.067,0.264,0.177,0.325,0.33c0.059,0.155,0.046,0.328-0.031,0.531
					c-0.083,0.207-0.193,0.345-0.336,0.414c-0.141,0.068-0.277,0.075-0.413,0.016c-0.073-0.027-0.132-0.075-0.187-0.136
					c-0.054-0.062-0.093-0.138-0.118-0.225c-0.027,0.07-0.036,0.109-0.063,0.18C31.067,5.455,31.008,5.433,30.891,5.39"/>
				<path fill="#FFFFFF" d="M32.903,5.557c-0.052,0.12-0.063,0.223-0.035,0.315c0.027,0.093,0.082,0.159,0.163,0.204
					c0.079,0.043,0.163,0.047,0.245,0.015c0.088-0.032,0.154-0.107,0.209-0.226c0.057-0.114,0.072-0.218,0.044-0.311
					c-0.027-0.097-0.084-0.164-0.165-0.209c-0.086-0.044-0.172-0.05-0.257-0.016C33.021,5.365,32.954,5.439,32.903,5.557
					 M32.579,5.382c0.045-0.11,0.114-0.201,0.208-0.272c0.096-0.073,0.205-0.112,0.323-0.114c0.125-0.003,0.246,0.031,0.365,0.092
					c0.189,0.1,0.314,0.246,0.374,0.427c0.061,0.181,0.045,0.359-0.039,0.535c-0.09,0.175-0.218,0.288-0.387,0.339
					c-0.17,0.052-0.338,0.034-0.507-0.057c-0.104-0.057-0.198-0.133-0.273-0.233C32.568,6,32.524,5.892,32.513,5.771
					C32.504,5.648,32.524,5.517,32.579,5.382"/>
				<path fill="#FFFFFF" d="M34.131,7.008c-0.12-0.077-0.181-0.114-0.3-0.188c0.242-0.461,0.362-0.688,0.601-1.15
					c0.12,0.072,0.18,0.107,0.298,0.184c-0.038,0.064-0.054,0.098-0.092,0.162c0.093-0.044,0.168-0.064,0.22-0.06
					c0.055,0.003,0.106,0.02,0.157,0.054c0.073,0.048,0.131,0.114,0.174,0.196c-0.097,0.077-0.147,0.117-0.247,0.191
					c-0.031-0.067-0.073-0.116-0.115-0.144c-0.044-0.03-0.086-0.043-0.132-0.039c-0.042,0.004-0.091,0.031-0.143,0.08
					c-0.047,0.051-0.127,0.17-0.234,0.364C34.245,6.8,34.206,6.868,34.131,7.008"/>
			</g>
			<path fill="#0E1A36" d="M16.297,12.827c-2.04,1.893-3.987,2.263-5.183,2.267c-0.516,3.22,0.824,6.464,1.438,7.732l0,0h11.347
				v-8.355h-6.633L16.297,12.827z"/>
			<path fill="#0E1A36" d="M14.475,35.302h-3.794c2.836-3.465,2.897-7.63,2.694-9.747h10.523V42.89l0,0L14.475,35.302z"/>
			<path fill="#0E1A36" d="M36.137,35.302l-9.424,7.588l0,0V25.554h10.285c-0.133,2.099,0.045,6.275,2.924,9.747H36.137z"/>
			<path fill="#0E1A36" d="M33.034,14.471h-6.326v8.355l0,0h11.043c0.613-1.268,1.954-4.512,1.437-7.732
				c-1.196-0.004-3.144-0.373-5.184-2.269L33.034,14.471z"/>
			<path fill="#FFFFFF" d="M21.518,16.23c-0.225-0.221-0.549-0.391-0.993-0.518c-0.434-0.121-0.984-0.183-1.633-0.183
				c-1.728,0-3.128,0.4-4.16,1.189c-0.806,0.612-1.214,1.305-1.214,2.061c0,0.431,0.136,0.79,0.404,1.066
				c0.271,0.282,0.563,0.425,0.868,0.425c0.124,0,0.233-0.031,0.335-0.097c0.138-0.095,0.167-0.212,0.167-0.294
				c0-0.22-0.231-0.367-0.405-0.46c-0.237-0.124-0.409-0.256-0.499-0.384c-0.087-0.12-0.128-0.259-0.128-0.436
				c0-0.362,0.185-0.74,0.55-1.124c0.373-0.394,0.917-0.724,1.618-0.982c0.7-0.26,1.427-0.392,2.161-0.392
				c0.629,0,1.1,0.087,1.4,0.259c0.274,0.157,0.407,0.36,0.407,0.62c0,0.279-0.118,0.542-0.351,0.783
				c-0.242,0.254-0.522,0.434-0.833,0.537c-0.283,0.095-0.55,0.143-0.795,0.143l-0.48-0.002l0.409-1.151
				c0.118-0.335,0.23-0.611,0.334-0.822l0.131-0.263l-0.289,0.057c-0.437,0.086-0.98,0.153-1.612,0.197l-0.091,0.006l-0.207,0.52
				l0.246-0.033c0.141-0.019,0.185-0.012,0.239,0.025c0.014,0.01,0.022,0.017,0.024,0.017h0c-0.002,0.025-0.011,0.086-0.059,0.225
				l-0.999,2.81c-0.141,0.383-0.317,0.637-0.525,0.754c-0.106,0.061-0.345,0.147-0.889,0.208l-0.097,0.01l-0.167,0.603l0.229-0.043
				c0.425-0.08,0.86-0.121,1.294-0.121c0.211,0,0.482,0.012,0.855,0.038c0.442,0.027,0.785,0.044,1.02,0.044
				c0.248,0,0.551-0.028,0.901-0.084l0.092-0.015l0.163-0.603l-0.232,0.049c-0.375,0.08-0.706,0.119-1.014,0.119
				c-0.201,0-0.433-0.009-0.692-0.028c0.08-0.2,0.151-0.397,0.216-0.593l0.51-1.356h0.396c0.724,0,1.354-0.091,1.926-0.278
				c0.581-0.182,1.033-0.431,1.342-0.74c0.319-0.322,0.481-0.658,0.481-0.998C21.873,16.722,21.753,16.463,21.518,16.23z"/>
			<path fill="#FFFFFF" d="M38.475,15.813c-0.231-0.106-0.547-0.158-0.965-0.158c-0.476,0-0.909,0.078-1.286,0.231
				c-0.39,0.155-0.732,0.402-1.048,0.753c-0.294,0.331-0.628,0.887-0.994,1.651c-0.619,0.041-1.449,0.062-2.529,0.065
				c0.389-0.927,0.72-1.565,0.984-1.898l0.179-0.227h-0.289c-1.19,0-2.006,0.028-2.426,0.085c-0.718,0.105-1.274,0.287-1.654,0.539
				c-0.408,0.269-0.615,0.59-0.615,0.954c0,0.21,0.072,0.385,0.21,0.505c0.133,0.112,0.292,0.17,0.474,0.17
				c0.15,0,0.275-0.033,0.374-0.099c0.149-0.1,0.18-0.226,0.18-0.314c0-0.106-0.059-0.224-0.181-0.36
				c-0.117-0.131-0.123-0.191-0.123-0.201c0-0.162,0.2-0.329,0.577-0.484c0.388-0.16,0.965-0.248,1.717-0.262l-0.573,1.335
				c-0.58,1.37-1.02,2.235-1.307,2.573c-0.272,0.321-0.55,0.476-0.85,0.476c-0.072,0-0.128-0.009-0.178-0.03
				c-0.024-0.009-0.093-0.04-0.222-0.15c-0.203-0.165-0.41-0.25-0.614-0.25c-0.134,0-0.25,0.032-0.339,0.091
				c-0.115,0.071-0.178,0.173-0.178,0.288c0,0.175,0.125,0.313,0.367,0.408c0.269,0.115,0.598,0.174,0.98,0.174
				c0.383,0,0.79-0.089,1.21-0.265c0.423-0.175,0.802-0.452,1.127-0.822c0.31-0.352,0.619-0.893,0.92-1.61
				c0.31-0.015,0.61-0.028,0.904-0.033l1.615-0.031l-0.456,1.011c-0.244,0.586-0.445,1.034-0.614,1.368l-0.137,0.271l0.295-0.073
				c0.192-0.047,0.377-0.07,0.567-0.07c0.237,0,0.527,0.012,0.862,0.036c0.325,0.025,0.579,0.038,0.778,0.038h0.628l0.162-0.534
				h-0.803c-0.139,0-0.329-0.013-0.596-0.041l-0.104-0.01c-0.014-0.002-0.028-0.003-0.042-0.004
				c0.721-2.085,1.361-3.471,1.905-4.124c0.298-0.378,0.596-0.569,0.885-0.569c0.123,0,0.281,0.066,0.456,0.191
				c0.403,0.29,0.749,0.289,0.982,0.152c0.118-0.07,0.184-0.175,0.184-0.296C38.877,16.14,38.807,15.957,38.475,15.813z"/>
			<path fill="#FFFFFF" d="M35.307,28.5c-0.17-0.013-0.367-0.033-0.594-0.062c-0.39-0.054-0.74-0.081-1.04-0.081
				c-0.572,0-1.085,0.082-1.526,0.243c-0.449,0.159-0.822,0.38-1.11,0.659c-0.299,0.291-0.451,0.59-0.451,0.888
				c0,0.157,0.041,0.311,0.119,0.455c0.075,0.146,0.188,0.291,0.338,0.429c0.103,0.094,0.331,0.251,0.737,0.507
				c0.275,0.177,0.605,0.394,0.727,0.503c0.14,0.123,0.244,0.243,0.3,0.344c0.05,0.097,0.075,0.186,0.075,0.271
				c0,0.283-0.212,0.542-0.648,0.793c-0.451,0.262-0.992,0.395-1.606,0.395c-0.19,0-0.371-0.025-0.55-0.075
				c-0.162-0.052-0.289-0.116-0.379-0.192c-0.082-0.067-0.153-0.183-0.218-0.36c-0.074-0.191-0.148-0.308-0.229-0.369
				c-0.236-0.189-0.659-0.197-0.932,0.002c-0.151,0.11-0.228,0.254-0.228,0.426c0,0.293,0.24,0.55,0.733,0.786
				c0.448,0.217,1.006,0.328,1.658,0.328c0.642,0,1.27-0.096,1.869-0.286c0.602-0.194,1.048-0.439,1.362-0.747
				c0.323-0.312,0.487-0.65,0.487-1.002c0-0.249-0.11-0.498-0.325-0.741c-0.206-0.237-0.616-0.548-1.252-0.953
				c-0.4-0.257-0.562-0.404-0.626-0.482c-0.077-0.094-0.116-0.202-0.116-0.32c0-0.227,0.159-0.441,0.474-0.637
				c0.341-0.216,0.729-0.321,1.187-0.321c0.279,0,0.501,0.057,0.66,0.171c0.142,0.096,0.21,0.228,0.21,0.402
				c0,0.141-0.023,0.357-0.072,0.661l-0.027,0.168h0.64l0.023-0.117c0.08-0.396,0.162-0.788,0.221-0.968
				c0.052-0.16,0.126-0.329,0.221-0.503l0.107-0.197L35.307,28.5z"/>
			<path fill="#FFFFFF" d="M20.291,27.896c-0.118,0.041-0.283,0.134-0.532,0.276l-0.159,0.09c-0.417,0.233-0.697,0.399-0.855,0.505
				c-0.312,0.207-0.564,0.406-0.747,0.59c-0.189,0.19-0.322,0.38-0.394,0.563c-0.08,0.202-0.082,0.379-0.007,0.527
				c0.061,0.122,0.167,0.196,0.3,0.207l0.041,0.002c0.099,0,0.205-0.029,0.314-0.085c0.098-0.05,0.17-0.108,0.22-0.177
				c0.091-0.124,0.075-0.221,0.044-0.283c-0.033-0.064-0.098-0.108-0.196-0.16c-0.038-0.017-0.048-0.025-0.048-0.025
				c-0.009-0.022-0.006-0.086,0.064-0.202c0.074-0.128,0.218-0.27,0.44-0.433c0.109-0.079,0.404-0.267,1.217-0.73
				c-0.739,1.436-2.243,4.317-2.487,4.603c-0.305,0.361-0.618,0.537-0.959,0.537c-0.082,0-0.146-0.01-0.199-0.031
				c-0.034-0.014-0.114-0.054-0.254-0.17c-0.373-0.307-0.797-0.347-1.054-0.178c-0.123,0.078-0.191,0.189-0.191,0.313
				c0,0.191,0.137,0.342,0.403,0.445c0.302,0.129,0.669,0.194,1.091,0.194c0.427,0,0.88-0.099,1.349-0.296
				c0.471-0.196,0.893-0.505,1.254-0.916c0.361-0.408,0.72-1.044,1.066-1.888h-0.001c0.08-0.114,0.129-0.305,0.149-0.397
				c0.451-1.091,1.093-2.512,1.421-2.926l0.26-0.329L20.291,27.896z"/>
			<g>
				<path fill="#0E1A36" d="M2.656,39.963c0.527,0.445,4.204,3.123,6.685,4.914c0.072,0.062,6.716,5.779,16.095,5.573
					c4.42-0.099,9.354-0.804,15.476-5.267l0.001,0.001c0.129-0.089,5.303-3.729,7.069-5.24c-0.019-0.017-0.04-0.038-0.062-0.058
					c-1.234-1.158-2.309-2.558-3.195-4.166c-0.904,1.089-8.814,10.238-19.247,10.433c-0.118,0.002-0.236,0.003-0.354,0.003
					c-6.681,0.001-13.137-3.523-19.19-10.474C5.638,36.232,4.32,38.569,2.656,39.963z"/>
			</g>
			<g>
				<path fill="#FFFFFF" d="M6.786,41.774l1.632-1.942l0.436,0.366L7.222,42.14L6.786,41.774z"/>
				<path fill="#FFFFFF" d="M9.275,43.732l-0.431-0.325l0.565-0.75c0.119-0.158,0.187-0.268,0.204-0.328
					c0.017-0.06,0.014-0.119-0.008-0.176c-0.022-0.057-0.063-0.107-0.121-0.151c-0.075-0.056-0.156-0.088-0.243-0.096
					c-0.087-0.008-0.165,0.01-0.232,0.054c-0.068,0.044-0.164,0.149-0.288,0.312L8.22,42.936l-0.432-0.325l1.106-1.468l0.401,0.302
					l-0.163,0.215c0.267-0.059,0.509-0.007,0.725,0.156c0.096,0.072,0.171,0.153,0.226,0.243c0.056,0.09,0.085,0.175,0.09,0.254
					c0.004,0.078-0.008,0.153-0.039,0.226c-0.03,0.073-0.088,0.166-0.173,0.279L9.275,43.732z"/>
				<path fill="#FFFFFF" d="M11.693,43.149l-0.216,0.321l-0.306-0.206l-0.413,0.615c-0.084,0.125-0.13,0.199-0.138,0.223
					c-0.008,0.025-0.006,0.051,0.006,0.078c0.012,0.028,0.032,0.051,0.062,0.071c0.041,0.028,0.11,0.056,0.206,0.083l-0.172,0.339
					c-0.132-0.03-0.263-0.089-0.395-0.178c-0.081-0.054-0.146-0.115-0.194-0.183c-0.049-0.068-0.075-0.132-0.08-0.191
					c-0.004-0.06,0.01-0.126,0.043-0.2c0.022-0.054,0.081-0.152,0.177-0.294l0.447-0.665l-0.205-0.138l0.216-0.322l0.205,0.138
					l0.204-0.303l0.608,0.067l-0.362,0.539L11.693,43.149z"/>
				<path fill="#FFFFFF" d="M12.459,45.089l0.42,0.346c-0.151,0.117-0.314,0.177-0.49,0.18c-0.175,0.003-0.36-0.053-0.552-0.168
					c-0.305-0.183-0.477-0.407-0.516-0.674c-0.03-0.213,0.021-0.428,0.151-0.647c0.156-0.262,0.354-0.421,0.595-0.478
					c0.24-0.057,0.477-0.017,0.709,0.122c0.261,0.156,0.42,0.357,0.478,0.601c0.059,0.245-0.011,0.526-0.209,0.842l-1.162-0.694
					c-0.07,0.125-0.091,0.244-0.06,0.356c0.03,0.111,0.098,0.199,0.205,0.263c0.073,0.043,0.144,0.062,0.215,0.056
					C12.314,45.188,12.387,45.153,12.459,45.089z M12.738,44.682c0.069-0.122,0.089-0.234,0.061-0.337
					c-0.028-0.102-0.09-0.181-0.185-0.238c-0.101-0.06-0.204-0.077-0.31-0.051c-0.106,0.027-0.192,0.098-0.259,0.213L12.738,44.682z
					"/>
				<path fill="#FFFFFF" d="M13.671,46.421l-0.48-0.249l0.846-1.631l0.446,0.231l-0.121,0.232c0.133-0.07,0.239-0.106,0.318-0.11
					c0.079-0.003,0.157,0.015,0.234,0.056c0.109,0.057,0.2,0.139,0.274,0.246l-0.344,0.299c-0.056-0.089-0.119-0.152-0.188-0.188
					c-0.067-0.035-0.133-0.048-0.197-0.039c-0.064,0.009-0.132,0.051-0.204,0.123c-0.072,0.073-0.18,0.249-0.324,0.526
					L13.671,46.421z"/>
				<path fill="#FFFFFF" d="M16.452,47.71l-0.495-0.215l0.374-0.861c0.079-0.182,0.12-0.304,0.122-0.367
					c0.002-0.062-0.014-0.119-0.049-0.169c-0.035-0.051-0.086-0.09-0.153-0.119c-0.085-0.038-0.172-0.05-0.259-0.037
					c-0.087,0.012-0.158,0.049-0.213,0.107c-0.056,0.059-0.124,0.183-0.206,0.371l-0.332,0.763l-0.495-0.215l0.733-1.685l0.46,0.2
					l-0.107,0.248c0.246-0.12,0.493-0.126,0.742-0.018c0.11,0.048,0.201,0.109,0.277,0.183c0.075,0.075,0.124,0.15,0.146,0.225
					c0.022,0.076,0.027,0.152,0.015,0.23c-0.012,0.078-0.047,0.181-0.103,0.312L16.452,47.71z"/>
				<path fill="#FFFFFF" d="M17.94,46.892L17.5,46.66c0.109-0.151,0.24-0.246,0.395-0.284c0.155-0.038,0.358-0.015,0.609,0.068
					c0.228,0.076,0.39,0.158,0.486,0.244c0.095,0.086,0.154,0.174,0.175,0.264c0.02,0.091-0.003,0.236-0.07,0.436l-0.185,0.536
					c-0.051,0.154-0.081,0.27-0.088,0.347c-0.008,0.078-0.004,0.167,0.014,0.265l-0.507-0.169c-0.003-0.035-0.004-0.086-0.004-0.153
					c0.001-0.03,0.001-0.05,0-0.06c-0.113,0.047-0.225,0.073-0.338,0.078c-0.113,0.006-0.226-0.011-0.338-0.049
					c-0.2-0.067-0.341-0.168-0.423-0.303c-0.082-0.136-0.099-0.278-0.049-0.427c0.033-0.098,0.089-0.178,0.167-0.237
					c0.078-0.06,0.171-0.095,0.279-0.104c0.108-0.01,0.256,0,0.444,0.028c0.253,0.039,0.431,0.057,0.536,0.052l0.015-0.046
					c0.029-0.089,0.026-0.16-0.01-0.213c-0.036-0.054-0.122-0.104-0.257-0.149c-0.091-0.031-0.168-0.038-0.23-0.023
					C18.059,46.778,17.998,46.821,17.94,46.892z M18.501,47.494c-0.072-0.002-0.184-0.014-0.336-0.033
					c-0.151-0.02-0.253-0.025-0.306-0.012c-0.081,0.02-0.133,0.063-0.155,0.129c-0.022,0.064-0.013,0.129,0.024,0.194
					c0.038,0.065,0.098,0.111,0.181,0.139c0.093,0.031,0.19,0.033,0.292,0.006c0.076-0.021,0.134-0.059,0.173-0.112
					c0.027-0.035,0.058-0.107,0.095-0.218L18.501,47.494z"/>
				<path fill="#FFFFFF" d="M20.787,47.133l-0.094,0.376l-0.358-0.09l-0.18,0.719c-0.037,0.145-0.055,0.231-0.054,0.257
					c0.001,0.026,0.011,0.049,0.031,0.071c0.02,0.022,0.048,0.038,0.083,0.046c0.049,0.012,0.123,0.014,0.222,0.007l-0.047,0.377
					c-0.134,0.017-0.278,0.005-0.432-0.033c-0.094-0.023-0.176-0.059-0.244-0.107c-0.069-0.048-0.116-0.099-0.139-0.153
					c-0.024-0.054-0.034-0.122-0.028-0.202c0.003-0.057,0.025-0.17,0.067-0.336l0.195-0.777l-0.241-0.06l0.094-0.376l0.241,0.06
					l0.089-0.354l0.595-0.143l-0.158,0.629L20.787,47.133z"/>
				<path fill="#FFFFFF" d="M20.895,49.03l0.342-1.806l0.531,0.101l-0.342,1.805L20.895,49.03z M21.284,46.979l0.084-0.442
					l0.531,0.1l-0.084,0.443L21.284,46.979z"/>
				<path fill="#FFFFFF" d="M22.137,48.315c0.016-0.161,0.076-0.312,0.179-0.453c0.103-0.142,0.239-0.244,0.408-0.307
					c0.169-0.063,0.354-0.085,0.552-0.065c0.308,0.031,0.55,0.146,0.729,0.345c0.178,0.199,0.254,0.436,0.226,0.711
					c-0.028,0.276-0.15,0.496-0.366,0.658c-0.217,0.163-0.475,0.229-0.777,0.199c-0.186-0.019-0.36-0.074-0.521-0.167
					c-0.162-0.093-0.279-0.217-0.353-0.372C22.143,48.707,22.117,48.525,22.137,48.315z M22.686,48.396
					c-0.018,0.181,0.016,0.325,0.102,0.431c0.086,0.106,0.199,0.167,0.34,0.18c0.14,0.014,0.262-0.022,0.367-0.109
					c0.105-0.087,0.166-0.222,0.185-0.406c0.018-0.179-0.016-0.321-0.102-0.427c-0.085-0.106-0.198-0.166-0.338-0.18
					c-0.14-0.014-0.263,0.022-0.368,0.109C22.766,48.08,22.704,48.214,22.686,48.396z"/>
				<path fill="#FFFFFF" d="M26.62,49.431l-0.54,0.014l-0.025-0.938c-0.005-0.198-0.02-0.326-0.044-0.384
					c-0.025-0.057-0.063-0.102-0.116-0.133c-0.053-0.031-0.116-0.045-0.189-0.043c-0.093,0.002-0.177,0.027-0.25,0.076
					c-0.073,0.048-0.122,0.11-0.147,0.188c-0.026,0.077-0.036,0.217-0.031,0.423l0.022,0.832l-0.54,0.014l-0.049-1.837l0.502-0.013
					l0.007,0.27c0.173-0.212,0.394-0.321,0.664-0.329c0.119-0.004,0.229,0.013,0.329,0.049c0.1,0.036,0.175,0.083,0.228,0.142
					c0.052,0.059,0.089,0.125,0.111,0.201c0.022,0.076,0.035,0.184,0.038,0.326L26.62,49.431z"/>
				<path fill="#FFFFFF" d="M27.581,48.037l-0.497-0.009c0.03-0.184,0.105-0.327,0.226-0.431c0.121-0.104,0.312-0.174,0.576-0.212
					c0.238-0.035,0.42-0.035,0.544-0.001c0.124,0.034,0.215,0.086,0.274,0.158c0.059,0.071,0.103,0.212,0.134,0.421l0.075,0.563
					c0.023,0.16,0.048,0.277,0.076,0.35c0.029,0.073,0.072,0.15,0.132,0.231l-0.529,0.076c-0.019-0.03-0.043-0.075-0.072-0.134
					c-0.013-0.028-0.022-0.046-0.027-0.054c-0.08,0.093-0.169,0.167-0.267,0.222c-0.098,0.055-0.206,0.091-0.324,0.108
					c-0.208,0.03-0.38,0.002-0.514-0.081c-0.134-0.085-0.213-0.204-0.235-0.36c-0.014-0.103-0.001-0.199,0.042-0.287
					c0.043-0.088,0.11-0.161,0.203-0.218c0.092-0.057,0.229-0.115,0.409-0.173c0.244-0.078,0.411-0.143,0.503-0.193l-0.007-0.048
					c-0.013-0.092-0.048-0.155-0.105-0.187c-0.056-0.032-0.155-0.038-0.296-0.018c-0.095,0.014-0.167,0.041-0.215,0.083
					C27.636,47.882,27.602,47.947,27.581,48.037z M28.353,48.324c-0.066,0.03-0.171,0.07-0.315,0.12
					c-0.144,0.05-0.237,0.092-0.279,0.126c-0.063,0.055-0.09,0.116-0.08,0.184c0.01,0.068,0.046,0.122,0.109,0.163
					c0.063,0.041,0.138,0.056,0.224,0.043c0.096-0.014,0.184-0.056,0.263-0.125c0.058-0.053,0.093-0.112,0.104-0.178
					c0.008-0.043,0.004-0.123-0.013-0.237L28.353,48.324z"/>
				<path fill="#FFFFFF" d="M29.715,48.966l-0.558-2.475l0.527-0.119l0.558,2.476L29.715,48.966z"/>
				<path fill="#FFFFFF" d="M31.8,47.586l0.504-0.236c0.089,0.146,0.194,0.238,0.317,0.277c0.122,0.038,0.265,0.028,0.428-0.031
					c0.172-0.063,0.29-0.142,0.354-0.241c0.064-0.097,0.079-0.19,0.047-0.277c-0.02-0.057-0.056-0.098-0.108-0.124
					c-0.051-0.027-0.128-0.038-0.23-0.033c-0.069,0.003-0.225,0.02-0.466,0.052c-0.31,0.041-0.54,0.036-0.689-0.015
					c-0.211-0.072-0.35-0.202-0.419-0.391c-0.044-0.122-0.048-0.249-0.01-0.382c0.038-0.134,0.119-0.255,0.242-0.362
					c0.124-0.108,0.287-0.199,0.491-0.273c0.333-0.121,0.606-0.147,0.822-0.077c0.216,0.07,0.368,0.213,0.456,0.429l-0.527,0.217
					c-0.068-0.115-0.149-0.184-0.244-0.211c-0.095-0.026-0.217-0.012-0.368,0.043c-0.155,0.057-0.266,0.13-0.333,0.22
					c-0.044,0.057-0.054,0.117-0.031,0.179c0.021,0.056,0.065,0.094,0.133,0.116c0.086,0.026,0.269,0.019,0.549-0.02
					c0.28-0.039,0.494-0.053,0.639-0.039c0.147,0.014,0.274,0.06,0.381,0.136c0.108,0.077,0.189,0.191,0.244,0.341
					c0.05,0.137,0.054,0.28,0.013,0.43c-0.041,0.15-0.128,0.282-0.26,0.396c-0.134,0.115-0.315,0.213-0.545,0.298
					c-0.335,0.122-0.617,0.146-0.848,0.072C32.113,48.003,31.932,47.84,31.8,47.586z"/>
				<path fill="#FFFFFF" d="M35.919,45.378l-0.446,0.304c-0.057-0.079-0.124-0.127-0.202-0.145
					c-0.078-0.017-0.163-0.004-0.254,0.039c-0.122,0.057-0.202,0.14-0.239,0.25c-0.037,0.109-0.015,0.253,0.068,0.431
					c0.092,0.198,0.194,0.32,0.306,0.367c0.112,0.048,0.23,0.042,0.354-0.016c0.093-0.043,0.158-0.102,0.195-0.178
					c0.037-0.075,0.041-0.176,0.011-0.304l0.515-0.15c0.043,0.222,0.017,0.416-0.077,0.584c-0.095,0.168-0.261,0.307-0.499,0.418
					c-0.271,0.126-0.522,0.15-0.754,0.071c-0.233-0.078-0.413-0.254-0.54-0.525c-0.128-0.276-0.147-0.527-0.057-0.756
					c0.09-0.228,0.273-0.407,0.548-0.535c0.226-0.105,0.425-0.145,0.599-0.12C35.62,45.138,35.778,45.226,35.919,45.378z"/>
				<path fill="#FFFFFF" d="M36.234,43.795l0.456,0.814c0.062-0.246,0.199-0.428,0.411-0.545c0.108-0.061,0.216-0.097,0.324-0.11
					c0.108-0.013,0.199-0.003,0.275,0.028s0.141,0.077,0.196,0.136c0.055,0.059,0.122,0.161,0.203,0.305l0.527,0.94l-0.471,0.264
					l-0.475-0.846c-0.094-0.168-0.163-0.27-0.206-0.305c-0.043-0.035-0.095-0.054-0.155-0.055c-0.06-0.001-0.124,0.017-0.193,0.056
					c-0.078,0.044-0.138,0.1-0.18,0.169c-0.043,0.068-0.059,0.146-0.048,0.23c0.01,0.085,0.053,0.195,0.128,0.33l0.45,0.803
					l-0.471,0.265l-1.24-2.214L36.234,43.795z"/>
				<path fill="#FFFFFF" d="M38.637,44.254c-0.089-0.136-0.138-0.291-0.147-0.465c-0.009-0.175,0.032-0.34,0.124-0.495
					c0.092-0.156,0.221-0.289,0.388-0.398c0.258-0.17,0.519-0.233,0.783-0.191c0.264,0.043,0.472,0.179,0.624,0.41
					c0.153,0.232,0.196,0.479,0.13,0.742c-0.066,0.262-0.225,0.477-0.478,0.643c-0.156,0.103-0.326,0.169-0.51,0.199
					c-0.184,0.029-0.353,0.007-0.508-0.067C38.888,44.556,38.753,44.43,38.637,44.254z M39.113,43.971
					c0.1,0.153,0.217,0.243,0.351,0.271c0.134,0.028,0.259,0.004,0.377-0.074c0.118-0.078,0.19-0.183,0.217-0.316
					c0.027-0.133-0.011-0.277-0.112-0.431c-0.099-0.151-0.215-0.24-0.348-0.268c-0.133-0.028-0.258-0.004-0.376,0.073
					c-0.118,0.077-0.191,0.183-0.218,0.317C38.977,43.676,39.014,43.819,39.113,43.971z"/>
				<path fill="#FFFFFF" d="M40.752,42.844c-0.098-0.129-0.157-0.279-0.178-0.454c-0.021-0.173,0.009-0.341,0.09-0.503
					c0.081-0.162,0.201-0.302,0.36-0.424c0.246-0.186,0.502-0.268,0.769-0.244c0.266,0.025,0.483,0.146,0.65,0.366
					c0.168,0.221,0.228,0.465,0.18,0.732c-0.048,0.266-0.192,0.49-0.433,0.674c-0.149,0.114-0.314,0.191-0.496,0.233
					c-0.181,0.043-0.351,0.031-0.511-0.032C41.023,43.128,40.88,43.012,40.752,42.844z M41.209,42.53
					c0.11,0.145,0.233,0.227,0.368,0.246c0.135,0.019,0.259-0.015,0.371-0.099c0.112-0.086,0.177-0.196,0.195-0.331
					c0.017-0.134-0.03-0.275-0.141-0.423c-0.109-0.143-0.231-0.225-0.365-0.244c-0.135-0.02-0.259,0.014-0.371,0.099
					c-0.112,0.085-0.177,0.196-0.195,0.331C41.052,42.244,41.098,42.384,41.209,42.53z"/>
				<path fill="#FFFFFF" d="M43.471,41.919l-1.641-1.935l0.412-0.349l1.641,1.935L43.471,41.919z"/>
			</g>
		</g>
		<g>
			<path fill="#0E1A36" d="M41.019,45.329c-0.048,0.036-0.096,0.068-0.144,0.103l-0.008,2.747c0.854-0.762,5.099-4.58,6.642-6.548
				c0.727-0.927,0.723-1.296,0.656-1.434c-0.02-0.041-0.051-0.072-0.088-0.097c-1.364,1.153-6.439,4.867-7.062,5.225L41.019,45.329z
				"/>
			<path fill="#0E1A36" d="M2.558,40.102c-0.026,0.022-0.048,0.046-0.063,0.077c-0.067,0.138-0.071,0.508,0.656,1.434
				c1.544,1.968,5.787,5.786,6.642,6.548l-0.008-2.7c-0.352-0.267-0.547-0.433-0.557-0.442C4.22,41.403,2.905,40.402,2.558,40.102z"
				/>
		</g>
	</g>
	<g>
		<g>
			<rect x="57.258" y="44.185" fill="#0E1A36" width="203.551" height="0.906"/>
			<g>
				<path fill="#0E1A36" d="M57.017,26.657c0.944-0.088,1.532-0.275,1.767-0.56c0.234-0.284,0.35-0.937,0.35-1.957V13.404
					c0-0.864-0.131-1.432-0.393-1.707c-0.262-0.274-0.837-0.447-1.724-0.52v-0.46h6.536c2.098,0,3.703,0.408,4.817,1.223
					c1.114,0.815,1.671,1.888,1.671,3.219c0,1.687-0.618,2.909-1.852,3.668c-1.235,0.759-2.78,1.138-4.636,1.138
					c-0.267,0-0.607-0.006-1.023-0.018c-0.416-0.012-0.724-0.019-0.926-0.019v4.503c0,0.931,0.143,1.516,0.43,1.758
					c0.286,0.241,0.925,0.397,1.918,0.469v0.46h-6.935V26.657z M65.38,12.097c-0.702-0.307-1.589-0.46-2.663-0.46
					c-0.508,0-0.821,0.051-0.938,0.152c-0.117,0.101-0.176,0.325-0.176,0.671v6.464c0.444,0.041,0.734,0.065,0.872,0.073
					c0.137,0.008,0.27,0.012,0.399,0.012c1.138,0,2.033-0.161,2.687-0.484c1.186-0.589,1.779-1.69,1.779-3.304
					C67.341,13.703,66.687,12.661,65.38,12.097z"/>
				<path fill="#0E1A36" d="M70.681,26.657c0.912-0.096,1.503-0.259,1.774-0.487c0.27-0.228,0.405-0.808,0.405-1.739V13.404
					c0-0.88-0.133-1.455-0.399-1.725c-0.266-0.27-0.859-0.437-1.779-0.502v-0.46h6.996v0.46c-0.912,0.048-1.523,0.197-1.834,0.448
					c-0.31,0.25-0.465,0.787-0.465,1.61v11.91c0,0.275,0.046,0.49,0.139,0.648c0.092,0.157,0.296,0.256,0.612,0.296
					c0.185,0.025,0.381,0.041,0.587,0.049c0.206,0.008,0.592,0.012,1.157,0.012c2.206,0,3.696-0.181,4.471-0.544
					c0.776-0.363,1.527-1.291,2.254-2.784h0.631l-1.212,4.297H70.681V26.657z"/>
				<path fill="#0E1A36" d="M85.823,26.657c0.912-0.096,1.503-0.259,1.774-0.487c0.27-0.228,0.405-0.808,0.405-1.739V13.404
					c0-0.88-0.133-1.455-0.4-1.725c-0.266-0.27-0.859-0.437-1.779-0.502v-0.46h13.169l0.085,3.547h-0.629
					c-0.21-1.093-0.525-1.8-0.945-2.12c-0.42-0.321-1.355-0.482-2.808-0.482h-3.375c-0.365,0-0.589,0.059-0.674,0.175
					c-0.085,0.117-0.128,0.337-0.128,0.659v5.531h3.824c1.057,0,1.731-0.156,2.022-0.47c0.291-0.313,0.524-0.948,0.702-1.903h0.58
					v5.725h-0.58c-0.186-0.961-0.424-1.596-0.714-1.906c-0.291-0.311-0.961-0.466-2.01-0.466h-3.824v6.137
					c0,0.492,0.155,0.783,0.466,0.872c0.312,0.089,1.242,0.133,2.794,0.133c1.68,0,2.922-0.183,3.721-0.55
					c0.8-0.367,1.519-1.257,2.156-2.669h0.69l-1.126,4.188H85.823V26.657z"/>
				<path fill="#0E1A36" d="M101.085,26.657c0.903-0.096,1.493-0.259,1.767-0.487c0.275-0.228,0.412-0.808,0.412-1.739V13.404
					c0-0.904-0.133-1.485-0.4-1.743c-0.267-0.259-0.859-0.42-1.779-0.484v-0.46h6.681c2.251,0,4.156,0.371,5.713,1.114
					c2.808,1.331,4.212,3.712,4.212,7.141c0,1.235-0.252,2.409-0.756,3.523c-0.504,1.113-1.265,2.053-2.281,2.82
					c-0.646,0.484-1.315,0.851-2.009,1.101c-1.267,0.468-2.824,0.702-4.672,0.702h-6.887V26.657z M106.078,26.004
					c0.197,0.129,0.607,0.194,1.228,0.194c1.937,0,3.53-0.384,4.781-1.151c1.92-1.179,2.88-3.194,2.88-6.045
					c0-2.544-0.791-4.457-2.372-5.742c-1.356-1.098-3.151-1.647-5.386-1.647c-0.557,0-0.934,0.06-1.131,0.182
					c-0.198,0.121-0.297,0.387-0.297,0.799v12.611C105.781,25.608,105.88,25.874,106.078,26.004z"/>
				<path fill="#0E1A36" d="M130.594,10.826c0.928,0.266,1.46,0.399,1.597,0.399c0.355,0,0.607-0.068,0.757-0.205
					c0.149-0.137,0.276-0.335,0.381-0.593h0.545l0.194,5.217h-0.569c-0.508-1.202-1.033-2.098-1.574-2.687
					c-0.977-1.033-2.247-1.549-3.813-1.549c-1.59,0-2.988,0.603-4.194,1.809c-1.206,1.206-1.809,3.193-1.809,5.961
					c0,2.283,0.601,4.067,1.804,5.35c1.202,1.283,2.687,1.924,4.454,1.924c0.299,0,0.65-0.028,1.053-0.085
					c0.403-0.056,0.787-0.145,1.15-0.266c0.589-0.193,0.956-0.36,1.101-0.501c0.145-0.141,0.218-0.348,0.218-0.622v-3.949
					c0-0.958-0.135-1.554-0.405-1.789c-0.271-0.235-0.862-0.381-1.773-0.438v-0.46h6.318v0.46c-0.613,0.04-1.021,0.141-1.223,0.302
					c-0.339,0.259-0.508,0.791-0.508,1.598v4.877c0,0.291-0.712,0.678-2.136,1.162c-1.424,0.484-2.794,0.726-4.109,0.726
					c-2.421,0-4.462-0.706-6.124-2.118c-1.832-1.557-2.748-3.647-2.748-6.27c0-2.307,0.73-4.285,2.191-5.931
					c1.605-1.816,3.736-2.724,6.39-2.724C128.721,10.426,129.666,10.559,130.594,10.826z"/>
				<path fill="#0E1A36" d="M136.766,26.657c0.912-0.096,1.503-0.259,1.774-0.487c0.27-0.228,0.405-0.808,0.405-1.739V13.404
					c0-0.88-0.133-1.455-0.4-1.725c-0.266-0.27-0.859-0.437-1.779-0.502v-0.46h13.169l0.085,3.547h-0.629
					c-0.21-1.093-0.525-1.8-0.945-2.12c-0.419-0.321-1.355-0.482-2.808-0.482h-3.375c-0.365,0-0.589,0.059-0.674,0.175
					c-0.085,0.117-0.128,0.337-0.128,0.659v5.531h3.824c1.057,0,1.731-0.156,2.022-0.47c0.291-0.313,0.524-0.948,0.702-1.903h0.58
					v5.725h-0.58c-0.186-0.961-0.424-1.596-0.714-1.906c-0.291-0.311-0.961-0.466-2.01-0.466h-3.824v6.137
					c0,0.492,0.155,0.783,0.466,0.872c0.312,0.089,1.242,0.133,2.794,0.133c1.68,0,2.922-0.183,3.721-0.55
					c0.8-0.367,1.519-1.257,2.156-2.669h0.69l-1.126,4.188h-13.399V26.657z"/>
				<path fill="#0E1A36" d="M158.226,26.657c0.968-0.104,1.573-0.283,1.815-0.536s0.363-0.914,0.363-1.982V13.404
					c0-0.888-0.135-1.465-0.405-1.731c-0.271-0.266-0.861-0.431-1.773-0.496v-0.46h6.874v0.46c-0.907,0.065-1.497,0.23-1.769,0.496
					c-0.273,0.267-0.409,0.843-0.409,1.731v4.829h7.528v-4.829c0-0.888-0.133-1.465-0.399-1.731
					c-0.266-0.266-0.859-0.431-1.779-0.496v-0.46h6.875v0.46c-0.912,0.065-1.503,0.23-1.774,0.496
					c-0.27,0.267-0.405,0.843-0.405,1.731V24.43c0,0.899,0.135,1.474,0.405,1.727c0.27,0.252,0.861,0.42,1.774,0.499v0.46h-6.875
					v-0.46c0.977-0.096,1.584-0.273,1.822-0.529c0.238-0.257,0.357-0.92,0.357-1.988v-4.818h-7.528v5.108
					c0,0.899,0.136,1.476,0.409,1.733c0.273,0.257,0.863,0.421,1.769,0.494v0.46h-6.874V26.657z"/>
				<path fill="#0E1A36" d="M176.093,27.117v-0.46c0.638-0.072,1.116-0.312,1.435-0.719c0.318-0.408,0.865-1.523,1.639-3.347
					l5.164-12.165h0.494L191,24.479c0.411,0.93,0.74,1.507,0.986,1.727c0.247,0.221,0.66,0.371,1.241,0.451v0.46h-6.304v-0.46
					c0.724-0.064,1.191-0.143,1.401-0.234c0.209-0.093,0.314-0.32,0.314-0.681c0-0.12-0.04-0.332-0.121-0.638
					c-0.08-0.305-0.194-0.626-0.339-0.964l-0.992-2.384h-6.533c-0.644,1.622-1.028,2.611-1.154,2.969
					c-0.125,0.357-0.188,0.64-0.188,0.849c0,0.418,0.169,0.707,0.508,0.867c0.209,0.097,0.603,0.169,1.183,0.217v0.46H176.093z
					 M186.769,20.75l-2.841-6.826l-2.854,6.826H186.769z"/>
				<path fill="#0E1A36" d="M193.907,26.657c0.953-0.088,1.545-0.273,1.779-0.554c0.234-0.281,0.351-0.935,0.351-1.963V13.404
					c0-0.872-0.131-1.442-0.393-1.713c-0.263-0.27-0.842-0.442-1.737-0.515v-0.46h6.863c1.428,0,2.618,0.181,3.571,0.544
					c1.808,0.685,2.711,1.946,2.711,3.783c0,1.233-0.401,2.18-1.204,2.84c-0.803,0.661-1.894,1.096-3.273,1.305l5.107,6.291
					c0.315,0.384,0.63,0.664,0.945,0.841c0.315,0.176,0.718,0.288,1.21,0.336v0.46h-3.992l-6.201-7.638l-1.088,0.061v4.885
					c0,0.917,0.139,1.497,0.418,1.743c0.278,0.245,0.885,0.408,1.822,0.488v0.46h-6.887V26.657z M202.38,18.064
					c1.315-0.54,1.973-1.555,1.973-3.045c0-1.433-0.59-2.412-1.767-2.935c-0.629-0.282-1.465-0.423-2.505-0.423
					c-0.702,0-1.131,0.05-1.289,0.15c-0.157,0.101-0.236,0.337-0.236,0.707v6.101C200.338,18.556,201.613,18.37,202.38,18.064z"/>
				<path fill="#0E1A36" d="M210.598,26.657c0.995-0.056,1.639-0.21,1.933-0.463c0.292-0.252,0.439-0.84,0.439-1.763V13.404
					c0-0.912-0.147-1.499-0.439-1.761c-0.294-0.262-0.938-0.418-1.933-0.466v-0.46h6.941c1.983,0,3.557,0.319,4.722,0.958
					c1.165,0.638,1.747,1.736,1.747,3.295c0,1.171-0.407,2.059-1.222,2.665c-0.46,0.347-1.149,0.634-2.07,0.86
					c1.138,0.274,2.11,0.732,2.917,1.373c0.807,0.641,1.21,1.538,1.21,2.691c0,1.935-0.895,3.265-2.685,3.991
					c-0.943,0.379-2.104,0.568-3.483,0.568h-8.078V26.657z M219.918,17.663c1.049-0.485,1.573-1.354,1.573-2.607
					c0-1.479-0.605-2.478-1.816-2.995c-0.67-0.283-1.687-0.424-3.05-0.424c-0.516,0-0.835,0.045-0.956,0.134
					c-0.121,0.089-0.181,0.331-0.181,0.727V18.1l2.36-0.036C218.679,18.048,219.369,17.914,219.918,17.663z M220.716,25.483
					c0.855-0.492,1.283-1.436,1.283-2.832c0-1.388-0.501-2.336-1.501-2.845c-1.001-0.508-2.276-0.763-3.824-0.763
					c-0.38,0-0.619,0-0.721,0c-0.101,0-0.256-0.004-0.466-0.012v6.172c0,0.428,0.121,0.704,0.363,0.829
					c0.242,0.125,0.802,0.188,1.682,0.188C218.8,26.221,219.861,25.975,220.716,25.483z"/>
				<path fill="#0E1A36" d="M229.927,12.556c1.525-1.46,3.401-2.191,5.628-2.191c2.235,0,4.116,0.735,5.641,2.203
					c1.653,1.59,2.481,3.708,2.481,6.354c0,2.687-0.856,4.825-2.566,6.415c-1.533,1.42-3.385,2.13-5.555,2.13
					c-2.324,0-4.252-0.787-5.786-2.36c-1.557-1.605-2.336-3.667-2.336-6.185C227.434,16.277,228.265,14.154,229.927,12.556z
					 M231.78,24.703c1.027,1.247,2.286,1.87,3.781,1.87c1.462,0,2.712-0.607,3.75-1.822c1.038-1.214,1.557-3.157,1.557-5.827
					c0-2.703-0.526-4.656-1.576-5.858c-1.05-1.202-2.294-1.803-3.732-1.803c-1.486,0-2.745,0.624-3.775,1.87
					c-1.03,1.247-1.545,3.177-1.545,5.792C230.242,21.53,230.755,23.456,231.78,24.703z"/>
				<path fill="#0E1A36" d="M244.875,26.657c0.952-0.088,1.545-0.273,1.779-0.554c0.234-0.281,0.35-0.935,0.35-1.963V13.404
					c0-0.872-0.131-1.442-0.393-1.713c-0.262-0.27-0.841-0.442-1.737-0.515v-0.46h6.863c1.428,0,2.618,0.181,3.571,0.544
					c1.807,0.685,2.711,1.946,2.711,3.783c0,1.233-0.402,2.18-1.204,2.84c-0.803,0.661-1.894,1.096-3.274,1.305l5.108,6.291
					c0.315,0.384,0.629,0.664,0.944,0.841c0.315,0.176,0.718,0.288,1.21,0.336v0.46h-3.992l-6.201-7.638l-1.087,0.061v4.885
					c0,0.917,0.139,1.497,0.417,1.743c0.279,0.245,0.886,0.408,1.822,0.488v0.46h-6.887V26.657z M253.347,18.064
					c1.315-0.54,1.973-1.555,1.973-3.045c0-1.433-0.589-2.412-1.767-2.935c-0.629-0.282-1.465-0.423-2.505-0.423
					c-0.702,0-1.132,0.05-1.289,0.15c-0.157,0.101-0.236,0.337-0.236,0.707v6.101C251.306,18.556,252.581,18.37,253.347,18.064z"/>
			</g>
			<g>
				<path fill="#0E1A36" d="M58.076,41.78c0.443-0.031,0.729-0.097,0.861-0.198c0.131-0.101,0.197-0.36,0.197-0.779v-4.838
					c0-0.4-0.065-0.658-0.197-0.772c-0.131-0.115-0.418-0.183-0.861-0.205v-0.202h3.218v0.202c-0.442,0.022-0.73,0.089-0.861,0.205
					c-0.131,0.115-0.196,0.373-0.196,0.772v4.838c0,0.419,0.065,0.679,0.196,0.779c0.131,0.101,0.418,0.167,0.861,0.198v0.202
					h-3.218V41.78z"/>
				<path fill="#0E1A36" d="M61.645,41.78c0.45-0.046,0.738-0.147,0.866-0.305c0.127-0.157,0.191-0.523,0.191-1.096v-4.792
					l-0.149-0.175c-0.16-0.187-0.295-0.303-0.407-0.347c-0.111-0.044-0.279-0.07-0.502-0.077v-0.202H63.5l4.198,5.204v-3.614
					c0-0.595-0.089-0.982-0.265-1.161c-0.117-0.116-0.375-0.192-0.776-0.227v-0.202h2.555v0.202
					c-0.415,0.043-0.691,0.144-0.829,0.303c-0.138,0.159-0.207,0.524-0.207,1.094v5.725h-0.186l-4.812-5.964v4.234
					c0,0.594,0.087,0.982,0.26,1.162c0.114,0.117,0.366,0.196,0.76,0.239v0.202h-2.555V41.78z"/>
				<path fill="#0E1A36" d="M69.589,34.786h6.149l0.059,1.848h-0.26c-0.128-0.581-0.29-0.959-0.486-1.134
					c-0.196-0.175-0.61-0.263-1.24-0.263h-0.605v5.565c0,0.419,0.065,0.679,0.197,0.779c0.131,0.101,0.417,0.167,0.86,0.198v0.202
					h-3.17V41.78c0.46-0.035,0.747-0.111,0.861-0.227c0.113-0.117,0.17-0.409,0.17-0.878v-5.438h-0.611
					c-0.602,0-1.012,0.087-1.23,0.26c-0.218,0.173-0.381,0.552-0.491,1.136h-0.265L69.589,34.786z"/>
				<path fill="#0E1A36" d="M76.142,41.78c0.4-0.043,0.66-0.114,0.778-0.214c0.118-0.1,0.178-0.355,0.178-0.763v-4.838
					c0-0.386-0.058-0.638-0.175-0.756c-0.117-0.119-0.377-0.192-0.78-0.221v-0.202h5.778l0.037,1.556h-0.276
					c-0.092-0.479-0.23-0.789-0.414-0.93c-0.184-0.141-0.595-0.211-1.233-0.211h-1.481c-0.159,0-0.258,0.025-0.295,0.077
					c-0.038,0.052-0.056,0.148-0.056,0.29v2.426h1.678c0.463,0,0.759-0.068,0.887-0.206c0.128-0.137,0.231-0.415,0.308-0.835h0.255
					v2.512h-0.255c-0.081-0.421-0.186-0.7-0.313-0.837c-0.127-0.136-0.421-0.204-0.882-0.204h-1.678v2.692
					c0,0.216,0.068,0.344,0.204,0.382c0.137,0.039,0.545,0.058,1.226,0.058c0.737,0,1.282-0.08,1.632-0.241
					c0.352-0.161,0.666-0.552,0.946-1.171h0.302l-0.494,1.837h-5.879V41.78z"/>
				<path fill="#0E1A36" d="M82.786,41.78c0.417-0.039,0.677-0.12,0.78-0.243c0.102-0.123,0.154-0.41,0.154-0.862v-4.71
					c0-0.383-0.057-0.633-0.173-0.751c-0.115-0.118-0.369-0.194-0.761-0.226v-0.202h3.011c0.627,0,1.149,0.08,1.567,0.239
					c0.793,0.3,1.189,0.854,1.189,1.66c0,0.541-0.176,0.957-0.529,1.246c-0.352,0.29-0.831,0.481-1.436,0.573l2.241,2.76
					c0.138,0.168,0.276,0.292,0.414,0.369c0.138,0.077,0.315,0.126,0.531,0.147v0.202h-1.752l-2.721-3.351l-0.477,0.027v2.144
					c0,0.402,0.061,0.657,0.183,0.764c0.122,0.108,0.389,0.18,0.8,0.215v0.202h-3.022V41.78z M86.503,38.009
					c0.577-0.236,0.866-0.682,0.866-1.336c0-0.629-0.259-1.058-0.775-1.288c-0.276-0.123-0.643-0.185-1.099-0.185
					c-0.308,0-0.497,0.022-0.566,0.066c-0.069,0.044-0.104,0.147-0.104,0.31v2.677C85.607,38.225,86.167,38.144,86.503,38.009z"/>
				<path fill="#0E1A36" d="M90.04,41.78c0.449-0.046,0.738-0.147,0.866-0.305c0.128-0.157,0.191-0.523,0.191-1.096v-4.792
					l-0.149-0.175c-0.159-0.187-0.295-0.303-0.406-0.347c-0.112-0.044-0.279-0.07-0.502-0.077v-0.202h1.856l4.198,5.204v-3.614
					c0-0.595-0.088-0.982-0.266-1.161c-0.116-0.116-0.375-0.192-0.775-0.227v-0.202h2.554v0.202
					c-0.414,0.043-0.69,0.144-0.828,0.303c-0.138,0.159-0.207,0.524-0.207,1.094v5.725h-0.186l-4.811-5.964v4.234
					c0,0.594,0.086,0.982,0.26,1.162c0.113,0.117,0.366,0.196,0.759,0.239v0.202H90.04V41.78z"/>
				<path fill="#0E1A36" d="M97.932,41.981V41.78c0.279-0.031,0.489-0.137,0.629-0.316c0.14-0.179,0.379-0.668,0.719-1.468
					l2.266-5.337h0.217l2.71,6.166c0.181,0.408,0.325,0.661,0.433,0.758c0.108,0.097,0.289,0.163,0.544,0.198v0.202h-2.765V41.78
					c0.317-0.028,0.522-0.063,0.614-0.103c0.092-0.041,0.138-0.14,0.138-0.299c0-0.053-0.019-0.146-0.053-0.28
					c-0.036-0.134-0.085-0.275-0.149-0.423l-0.436-1.046h-2.866c-0.283,0.711-0.45,1.146-0.506,1.302
					c-0.054,0.157-0.082,0.281-0.082,0.373c0,0.183,0.075,0.31,0.223,0.381c0.092,0.042,0.265,0.074,0.519,0.095v0.202H97.932z
					 M102.616,39.188l-1.246-2.995l-1.252,2.995H102.616z"/>
				<path fill="#0E1A36" d="M104.633,34.786h6.15l0.059,1.848h-0.26c-0.128-0.581-0.289-0.959-0.486-1.134
					c-0.197-0.175-0.61-0.263-1.24-0.263h-0.606v5.565c0,0.419,0.065,0.679,0.197,0.779c0.131,0.101,0.418,0.167,0.861,0.198v0.202
					h-3.171V41.78c0.46-0.035,0.747-0.111,0.861-0.227c0.113-0.117,0.17-0.409,0.17-0.878v-5.438h-0.611
					c-0.602,0-1.012,0.087-1.229,0.26c-0.218,0.173-0.382,0.552-0.491,1.136h-0.266L104.633,34.786z"/>
				<path fill="#0E1A36" d="M111.239,41.78c0.443-0.031,0.729-0.097,0.861-0.198c0.131-0.101,0.197-0.36,0.197-0.779v-4.838
					c0-0.4-0.065-0.658-0.197-0.772c-0.131-0.115-0.418-0.183-0.861-0.205v-0.202h3.218v0.202c-0.442,0.022-0.73,0.089-0.861,0.205
					c-0.131,0.115-0.196,0.373-0.196,0.772v4.838c0,0.419,0.065,0.679,0.196,0.779c0.131,0.101,0.418,0.167,0.861,0.198v0.202
					h-3.218V41.78z"/>
				<path fill="#0E1A36" d="M116.104,35.593c0.669-0.641,1.492-0.961,2.469-0.961c0.981,0,1.806,0.322,2.475,0.966
					c0.726,0.698,1.088,1.627,1.088,2.788c0,1.179-0.375,2.117-1.125,2.815c-0.673,0.623-1.486,0.935-2.438,0.935
					c-1.019,0-1.866-0.345-2.538-1.036c-0.684-0.705-1.025-1.609-1.025-2.714C115.009,37.225,115.375,36.294,116.104,35.593z
					 M116.917,40.922c0.45,0.547,1.003,0.82,1.659,0.82c0.641,0,1.19-0.266,1.645-0.8c0.455-0.532,0.684-1.385,0.684-2.557
					c0-1.186-0.231-2.043-0.692-2.57c-0.461-0.528-1.006-0.791-1.637-0.791c-0.652,0-1.204,0.273-1.656,0.82
					c-0.452,0.547-0.677,1.394-0.677,2.541C116.242,39.53,116.467,40.375,116.917,40.922z"/>
				<path fill="#0E1A36" d="M122.662,41.78c0.45-0.046,0.738-0.147,0.866-0.305c0.127-0.157,0.191-0.523,0.191-1.096v-4.792
					l-0.149-0.175c-0.159-0.187-0.295-0.303-0.406-0.347c-0.112-0.044-0.279-0.07-0.502-0.077v-0.202h1.856l4.199,5.204v-3.614
					c0-0.595-0.089-0.982-0.266-1.161c-0.117-0.116-0.375-0.192-0.775-0.227v-0.202h2.555v0.202
					c-0.414,0.043-0.69,0.144-0.829,0.303c-0.138,0.159-0.207,0.524-0.207,1.094v5.725h-0.186l-4.811-5.964v4.234
					c0,0.594,0.086,0.982,0.26,1.162c0.114,0.117,0.366,0.196,0.759,0.239v0.202h-2.555V41.78z"/>
				<path fill="#0E1A36" d="M130.555,41.981V41.78c0.279-0.031,0.489-0.137,0.629-0.316c0.139-0.179,0.379-0.668,0.719-1.468
					l2.266-5.337h0.216l2.71,6.166c0.181,0.408,0.325,0.661,0.432,0.758c0.109,0.097,0.29,0.163,0.545,0.198v0.202h-2.766V41.78
					c0.318-0.028,0.523-0.063,0.614-0.103c0.093-0.041,0.138-0.14,0.138-0.299c0-0.053-0.018-0.146-0.053-0.28
					c-0.036-0.134-0.085-0.275-0.149-0.423l-0.436-1.046h-2.866c-0.283,0.711-0.451,1.146-0.506,1.302
					c-0.055,0.157-0.082,0.281-0.082,0.373c0,0.183,0.074,0.31,0.222,0.381c0.093,0.042,0.265,0.074,0.519,0.095v0.202H130.555z
					 M135.238,39.188l-1.246-2.995l-1.252,2.995H135.238z"/>
				<path fill="#0E1A36" d="M138.371,41.78c0.4-0.043,0.66-0.114,0.778-0.214c0.118-0.1,0.178-0.355,0.178-0.763v-4.838
					c0-0.386-0.058-0.638-0.175-0.756c-0.117-0.119-0.377-0.192-0.78-0.221v-0.202h3.069v0.202c-0.4,0.022-0.668,0.087-0.804,0.197
					c-0.136,0.11-0.204,0.345-0.204,0.706v5.225c0,0.12,0.02,0.215,0.061,0.284c0.041,0.069,0.13,0.113,0.268,0.13
					c0.082,0.011,0.167,0.018,0.259,0.022c0.09,0.004,0.259,0.005,0.507,0.005c0.968,0,1.622-0.08,1.962-0.239
					c0.341-0.159,0.67-0.566,0.99-1.222h0.276l-0.532,1.885h-5.852V41.78z"/>
				<path fill="#0E1A36" d="M147.914,39.794c0.183,0.488,0.398,0.878,0.647,1.168c0.431,0.507,0.967,0.759,1.607,0.759
					c0.347,0,0.646-0.11,0.899-0.329c0.252-0.22,0.379-0.526,0.379-0.919c0-0.354-0.127-0.662-0.382-0.924
					c-0.166-0.167-0.516-0.416-1.049-0.749l-0.928-0.579c-0.279-0.177-0.502-0.356-0.668-0.537
					c-0.308-0.343-0.462-0.722-0.462-1.136c0-0.548,0.183-1.006,0.547-1.37c0.365-0.365,0.848-0.547,1.45-0.547
					c0.248,0,0.547,0.061,0.895,0.183c0.349,0.122,0.548,0.183,0.598,0.183c0.134,0,0.227-0.032,0.279-0.096
					c0.051-0.064,0.091-0.154,0.119-0.271h0.223l0.239,2.315h-0.26c-0.177-0.698-0.461-1.185-0.853-1.461
					c-0.391-0.276-0.777-0.414-1.16-0.414c-0.297,0-0.556,0.088-0.778,0.263c-0.221,0.175-0.332,0.419-0.332,0.73
					c0,0.279,0.085,0.518,0.254,0.717c0.17,0.202,0.433,0.412,0.79,0.632l0.955,0.59c0.598,0.368,1.019,0.706,1.265,1.014
					c0.242,0.312,0.363,0.68,0.363,1.104c0,0.57-0.215,1.046-0.645,1.429c-0.43,0.383-0.98,0.573-1.648,0.573
					c-0.337,0-0.688-0.064-1.055-0.191c-0.366-0.128-0.576-0.191-0.629-0.191c-0.127,0-0.213,0.039-0.257,0.117
					c-0.044,0.078-0.073,0.161-0.088,0.25h-0.239l-0.325-2.315H147.914z"/>
				<path fill="#0E1A36" d="M158.497,34.834c0.414,0.117,0.646,0.175,0.695,0.175c0.103,0,0.2-0.028,0.292-0.085
					c0.092-0.057,0.155-0.145,0.191-0.265h0.228l0.101,2.442h-0.25c-0.145-0.485-0.335-0.876-0.568-1.173
					c-0.446-0.56-1.046-0.839-1.8-0.839c-0.761,0-1.383,0.301-1.867,0.903c-0.483,0.602-0.725,1.431-0.725,2.486
					c0,0.97,0.254,1.744,0.762,2.323c0.508,0.579,1.152,0.868,1.931,0.868c0.563,0,1.081-0.134,1.556-0.403
					c0.273-0.152,0.571-0.383,0.897-0.69l0.202,0.202c-0.241,0.305-0.54,0.572-0.898,0.802c-0.608,0.389-1.268,0.584-1.98,0.584
					c-1.168,0-2.096-0.374-2.782-1.121c-0.634-0.69-0.951-1.552-0.951-2.586c0-1.058,0.335-1.947,1.004-2.666
					c0.704-0.754,1.621-1.131,2.75-1.131C157.68,34.659,158.083,34.717,158.497,34.834z"/>
				<path fill="#0E1A36" d="M160.69,41.78c0.424-0.046,0.69-0.124,0.797-0.235c0.106-0.111,0.159-0.401,0.159-0.87v-4.71
					c0-0.389-0.059-0.642-0.178-0.759c-0.118-0.117-0.378-0.189-0.778-0.218v-0.202h3.017v0.202
					c-0.399,0.028-0.657,0.101-0.777,0.218c-0.12,0.117-0.18,0.37-0.18,0.759v2.119h3.303v-2.119c0-0.389-0.058-0.642-0.175-0.759
					c-0.117-0.117-0.377-0.189-0.781-0.218v-0.202h3.017v0.202c-0.4,0.028-0.659,0.101-0.778,0.218
					c-0.119,0.117-0.178,0.37-0.178,0.759v4.838c0,0.394,0.059,0.647,0.178,0.758c0.118,0.11,0.378,0.184,0.778,0.219v0.202h-3.017
					V41.78c0.429-0.043,0.695-0.12,0.8-0.233c0.105-0.113,0.157-0.403,0.157-0.872v-2.114h-3.303v2.241
					c0,0.394,0.06,0.648,0.18,0.761c0.12,0.113,0.378,0.185,0.777,0.216v0.202h-3.017V41.78z"/>
				<path fill="#0E1A36" d="M169.788,35.593c0.669-0.641,1.492-0.961,2.469-0.961c0.981,0,1.805,0.322,2.475,0.966
					c0.726,0.698,1.088,1.627,1.088,2.788c0,1.179-0.375,2.117-1.126,2.815c-0.673,0.623-1.485,0.935-2.437,0.935
					c-1.019,0-1.866-0.345-2.538-1.036c-0.684-0.705-1.025-1.609-1.025-2.714C168.693,37.225,169.058,36.294,169.788,35.593z
					 M170.601,40.922c0.45,0.547,1.003,0.82,1.658,0.82c0.642,0,1.19-0.266,1.646-0.8c0.455-0.532,0.683-1.385,0.683-2.557
					c0-1.186-0.23-2.043-0.692-2.57c-0.46-0.528-1.006-0.791-1.637-0.791c-0.652,0-1.204,0.273-1.656,0.82
					c-0.452,0.547-0.678,1.394-0.678,2.541C169.925,39.53,170.15,40.375,170.601,40.922z"/>
				<path fill="#0E1A36" d="M177.642,35.593c0.669-0.641,1.492-0.961,2.47-0.961c0.98,0,1.805,0.322,2.475,0.966
					c0.725,0.698,1.089,1.627,1.089,2.788c0,1.179-0.376,2.117-1.127,2.815c-0.672,0.623-1.485,0.935-2.437,0.935
					c-1.02,0-1.866-0.345-2.539-1.036c-0.683-0.705-1.025-1.609-1.025-2.714C176.548,37.225,176.912,36.294,177.642,35.593z
					 M178.455,40.922c0.45,0.547,1.003,0.82,1.659,0.82c0.642,0,1.189-0.266,1.645-0.8c0.455-0.532,0.683-1.385,0.683-2.557
					c0-1.186-0.23-2.043-0.691-2.57c-0.461-0.528-1.007-0.791-1.637-0.791c-0.653,0-1.204,0.273-1.656,0.82
					c-0.452,0.547-0.679,1.394-0.679,2.541C177.779,39.53,178.005,40.375,178.455,40.922z"/>
				<path fill="#0E1A36" d="M184.2,41.78c0.4-0.043,0.659-0.114,0.777-0.214c0.118-0.1,0.178-0.355,0.178-0.763v-4.838
					c0-0.386-0.059-0.638-0.175-0.756c-0.117-0.119-0.377-0.192-0.78-0.221v-0.202h3.069v0.202c-0.4,0.022-0.668,0.087-0.804,0.197
					c-0.136,0.11-0.204,0.345-0.204,0.706v5.225c0,0.12,0.02,0.215,0.06,0.284c0.041,0.069,0.131,0.113,0.269,0.13
					c0.081,0.011,0.167,0.018,0.258,0.022c0.09,0.004,0.259,0.005,0.508,0.005c0.968,0,1.622-0.08,1.962-0.239
					c0.34-0.159,0.67-0.566,0.989-1.222h0.276l-0.532,1.885H184.2V41.78z"/>
			</g>
		</g>
	</g>
</g>
</svg>
